<?xml version="1.0" standalone="no"?>
<!DOCTYPE svg PUBLIC "-//W3C//DTD SVG 20010904//EN"
 "http://www.w3.org/TR/2001/REC-SVG-20010904/DTD/svg10.dtd">
<svg version="1.0" xmlns="http://www.w3.org/2000/svg"
 width="433.000000pt" height="577.000000pt" viewBox="0 0 433.000000 577.000000"
 preserveAspectRatio="xMidYMid meet">

<g transform="translate(0.000000,577.000000) scale(0.100000,-0.100000)"
fill="#000000" stroke="none">
<path d="M1890 5260 c-108 -20 -317 -109 -437 -186 -209 -133 -394 -419 -439
-677 -23 -132 -9 -438 29 -619 1 -7 -16 -18 -38 -25 -22 -8 -43 -19 -47 -26
-20 -32 2 -179 58 -372 44 -152 95 -256 157 -317 43 -42 52 -60 83 -158 19
-60 51 -147 71 -192 34 -77 37 -92 41 -200 4 -109 2 -121 -23 -185 -57 -142
-84 -253 -85 -357 0 -55 8 -21 19 70 6 57 19 114 35 150 l26 59 -7 -45 c-4
-25 -7 -54 -6 -65 7 -92 68 -345 95 -393 18 -32 37 -85 73 -202 28 -92 66
-169 80 -164 13 5 96 -43 103 -58 2 -5 10 -8 17 -8 7 0 27 -12 44 -26 17 -14
31 -22 31 -17 0 5 -24 27 -54 48 -51 38 -53 40 -39 62 8 13 19 20 24 17 5 -3
9 2 9 10 0 16 26 46 41 46 5 0 9 -5 9 -11 0 -5 -4 -7 -10 -4 -5 3 -10 -2 -10
-12 0 -16 1 -16 17 0 13 13 14 19 5 29 -7 7 -12 22 -12 34 0 12 -7 27 -15 34
-8 7 -15 22 -15 34 0 17 -2 18 -10 6 -7 -11 -8 -4 -5 23 4 28 1 37 -10 37 -9
0 -20 11 -25 24 -5 13 -14 27 -19 31 -6 3 -11 13 -11 20 0 8 -15 38 -33 67
-18 29 -33 58 -33 63 -1 23 -17 65 -25 65 -5 0 -9 9 -9 19 0 11 -4 22 -8 25
-12 7 -14 66 -1 66 6 0 9 7 5 15 -3 8 -1 15 5 15 6 0 8 4 5 9 -9 14 -14 101
-6 101 13 0 -2 44 -18 56 -11 8 -12 15 -4 30 7 14 7 24 -3 38 -12 16 -12 21 0
32 7 8 18 14 24 14 6 0 11 5 11 10 0 6 4 10 9 10 8 0 100 -67 151 -111 14 -12
27 -20 30 -18 3 2 16 -6 30 -18 13 -13 34 -23 47 -23 13 0 22 -5 21 -12 -2 -6
5 -14 14 -16 13 -2 16 1 12 12 -6 15 26 94 50 124 5 8 11 24 13 35 10 77 14
87 36 87 15 0 26 10 35 28 7 16 23 34 36 40 23 10 41 48 27 57 -12 7 -81 -7
-81 -16 0 -5 -14 -16 -30 -24 -29 -15 -31 -15 -39 7 -5 13 -7 26 -4 30 2 4 -9
5 -24 2 -21 -4 -31 0 -40 15 -11 18 -10 23 13 37 15 11 23 23 19 32 -6 16 33
59 49 54 6 -2 19 1 30 7 30 14 126 32 137 25 13 -7 41 15 33 27 -3 5 0 9 6 9
6 0 8 5 5 10 -3 6 3 10 14 10 11 0 23 4 26 10 9 15 97 8 91 -7 -3 -7 -1 -13 4
-13 11 0 16 2 87 37 39 20 44 20 61 4 10 -9 23 -25 29 -36 10 -18 12 -16 20
15 6 19 7 37 4 40 -3 3 -6 14 -6 24 0 30 -51 43 -85 22 -16 -9 -43 -16 -62
-16 -18 0 -96 -7 -173 -16 -125 -15 -208 -14 -192 3 3 3 30 6 59 7 29 0 52 4
51 9 -2 4 -3 14 -3 23 0 12 -7 15 -25 11 -18 -3 -29 1 -35 14 -15 28 -13 29
42 27 42 0 55 3 70 22 22 27 22 29 -3 60 l-21 24 -32 -37 -32 -37 -22 23 c-15
16 -22 36 -22 61 0 33 3 38 20 33 11 -3 22 -2 24 2 6 9 -30 41 -44 41 -13 0
-13 17 0 78 8 36 8 56 -1 78 -7 16 -11 33 -10 38 1 4 -3 14 -10 22 -9 11 -6
18 12 33 18 15 22 27 20 57 -2 22 -3 67 -4 102 0 34 -4 62 -9 62 -4 0 1 9 11
19 54 54 -40 177 -159 210 -49 13 -111 12 -121 -2 -3 -4 -59 -15 -125 -23
-131 -17 -182 -35 -237 -84 -26 -22 -37 -27 -37 -17 0 8 -6 17 -12 19 -7 3 6
17 29 32 24 16 49 26 57 23 15 -6 29 20 35 63 0 5 15 17 33 26 34 18 190 21
258 6 55 -13 95 -9 95 8 0 8 -10 19 -22 25 -13 5 -23 17 -23 25 -1 19 -97 78
-142 86 -18 4 -39 14 -46 23 -7 9 -14 14 -15 11 -1 -2 -17 5 -34 15 -24 14
-33 26 -33 46 0 15 7 29 15 33 19 7 8 36 -14 36 -12 0 -8 6 12 24 24 21 29 33
32 84 3 42 0 59 -8 59 -31 -1 -43 5 -55 24 -11 17 -10 22 10 38 19 16 20 20 8
32 -8 8 -26 16 -40 18 -14 1 -28 8 -31 13 -4 6 -8 5 -11 -3 -3 -8 -8 -11 -12
-8 -4 4 0 14 9 23 15 15 15 16 -2 16 -10 0 -24 9 -31 20 -12 20 -4 28 13 11 6
-6 14 -1 22 15 10 21 8 26 -8 34 -31 17 -22 30 12 18 16 -6 33 -8 36 -4 4 3 1
6 -5 6 -7 0 -12 3 -12 8 0 9 92 8 138 -2 18 -4 30 -11 28 -15 -3 -4 1 -8 9 -8
8 0 12 4 9 9 -5 8 67 0 75 -8 2 -2 10 1 18 7 10 9 13 7 13 -6 0 -13 3 -15 13
-6 8 6 17 8 20 4 4 -3 9 2 13 11 5 13 10 14 20 5 7 -6 30 -10 51 -9 55 4 63 2
63 -15 0 -9 6 -15 13 -13 6 1 24 -5 38 -15 33 -22 57 -13 61 21 3 23 12 29 72
50 38 13 77 34 87 46 14 18 29 23 70 24 29 0 55 6 59 13 6 8 9 8 13 -2 5 -12
8 -11 19 1 7 8 35 17 63 18 28 2 57 10 66 18 18 16 33 19 24 5 -10 -18 14 -22
43 -7 24 13 38 13 89 2 33 -6 68 -20 77 -29 10 -9 25 -17 35 -17 18 0 51 -48
51 -74 0 -9 11 -34 24 -55 13 -21 27 -59 31 -84 5 -31 11 -44 19 -40 6 4 5 -1
-2 -10 -14 -17 -8 -57 9 -57 5 0 9 -13 9 -29 0 -16 4 -41 10 -55 6 -18 6 -26
-1 -26 -6 0 -8 -4 -5 -9 4 -5 12 -45 20 -88 8 -44 29 -117 48 -164 57 -136 99
-299 112 -429 2 -25 7 -62 11 -82 5 -24 3 -38 -3 -38 -9 0 -37 -99 -29 -106 9
-9 46 11 50 27 3 11 14 19 25 19 11 0 33 15 50 34 25 28 29 41 27 82 -1 46
-16 67 -30 45 -3 -6 -17 -11 -30 -11 -39 0 -56 54 -58 185 l-2 110 40 52 c32
41 46 52 70 53 29 1 29 2 7 12 -18 9 -30 8 -58 -6 l-36 -17 6 38 c16 111 17
214 2 322 -30 211 -60 301 -177 533 -67 131 -73 140 -147 200 -42 35 -102 82
-132 105 -54 40 -66 46 -165 95 -53 27 -178 69 -258 87 -65 15 -271 22 -327
11z m-200 -1591 c9 -16 8 -25 -6 -40 -23 -26 -48 -26 -34 0 5 11 10 29 10 40
0 27 16 27 30 0z m-75 -49 c-3 -5 -11 -10 -16 -10 -6 0 -7 5 -4 10 3 6 11 10
16 10 6 0 7 -4 4 -10z m-100 -10 c3 -5 2 -10 -4 -10 -5 0 -13 5 -16 10 -3 6
-2 10 4 10 5 0 13 -4 16 -10z m9 -286 c4 -11 1 -14 -11 -12 -9 2 -18 9 -21 16
-6 18 25 15 32 -4z m-44 -8 c0 -3 -4 -8 -10 -11 -5 -3 -10 -1 -10 4 0 6 5 11
10 11 6 0 10 -2 10 -4z m104 -41 c3 -8 12 -15 20 -15 7 0 27 -7 42 -15 16 -8
37 -15 47 -15 9 0 17 -7 17 -16 0 -9 9 -18 20 -21 48 -13 32 -114 -30 -182
-16 -17 -26 -31 -23 -31 11 0 -30 -40 -41 -41 -15 -1 -69 -67 -69 -85 0 -8 -6
-14 -12 -14 -7 0 -17 -10 -22 -22 -11 -23 -11 -23 -18 5 -4 15 -10 27 -14 27
-3 0 -7 14 -8 31 -1 17 -7 36 -12 43 -16 19 2 141 19 131 15 -9 22 15 10 30
-8 9 -9 25 -5 42 4 16 8 43 9 61 1 17 7 37 14 44 17 17 15 26 -5 31 -14 4 -12
5 5 6 12 0 22 6 22 11 0 16 27 12 34 -5z m-74 -35 c0 -5 -4 -10 -10 -10 -5 0
-10 5 -10 10 0 6 5 10 10 10 6 0 10 -4 10 -10z m419 -139 c30 -17 18 -27 -41
-34 -37 -5 -51 -3 -64 11 -17 16 -17 17 2 20 10 2 23 8 28 12 11 11 45 6 75
-9z m-179 -263 c0 -22 -6 -40 -14 -45 -16 -9 -25 -150 -11 -173 5 -8 -1 -19
-16 -30 -18 -15 -23 -26 -21 -59 2 -31 -1 -41 -13 -41 -17 0 -20 -16 -5 -25
11 -7 2 -35 -11 -35 -5 0 -9 9 -9 20 0 16 -6 20 -32 19 -26 0 -29 -2 -14 -8
18 -7 18 -8 3 -14 -21 -8 -49 2 -41 14 3 5 1 9 -4 9 -5 0 -9 6 -9 13 0 6 -3
22 -7 35 -5 13 -3 22 3 22 14 0 14 43 0 57 -8 8 -4 23 15 55 14 25 26 52 26
60 0 9 7 19 16 22 8 3 15 16 14 28 -4 42 0 53 25 80 14 15 25 34 25 42 0 8 8
19 17 25 27 15 63 -25 63 -71z m81 -10 c-5 -13 -16 -25 -25 -26 -14 -3 -13 1
5 22 28 32 31 32 20 4z m-150 -1441 c-10 -9 -11 -8 -5 6 3 10 9 15 12 12 3 -3
0 -11 -7 -18z"/>
<path d="M1455 4480 c3 -5 8 -10 11 -10 2 0 4 5 4 10 0 6 -5 10 -11 10 -5 0
-7 -4 -4 -10z"/>
<path d="M2579 4011 c-1 -3 -1 -10 0 -14 1 -5 -2 -6 -6 -4 -10 7 -134 -21
-148 -33 -6 -5 -35 -12 -65 -16 -42 -5 -115 -31 -137 -48 0 0 -5 -19 -9 -41
-6 -34 -5 -38 7 -29 8 7 30 14 49 16 19 3 83 13 141 22 97 15 113 16 173 2 67
-16 111 -13 84 6 -9 7 -7 8 7 3 11 -4 44 -11 73 -15 61 -10 72 -16 72 -36 0
-23 19 -16 26 10 6 25 -17 89 -42 117 -12 13 -22 15 -46 8 -37 -10 -91 10
-107 39 -8 14 -21 20 -41 20 -16 -1 -31 -4 -31 -7z"/>
<path d="M3203 3790 c0 -25 2 -35 4 -22 2 12 2 32 0 45 -2 12 -4 2 -4 -23z"/>
<path d="M2355 3788 c-25 -7 -57 -29 -88 -61 -30 -31 -51 -46 -56 -39 -10 17
-30 -1 -56 -51 l-23 -46 20 -41 c11 -22 23 -40 27 -41 15 -2 40 -7 60 -14 14
-4 37 2 68 19 27 14 68 33 92 41 24 8 49 21 55 28 14 17 164 41 242 38 44 -1
64 2 74 13 15 19 6 46 -16 46 -9 0 -48 15 -87 34 -40 18 -84 36 -99 40 -16 3
-28 11 -28 16 0 11 38 4 85 -15 17 -7 48 -20 70 -29 l40 -17 -25 20 c-66 54
-259 86 -355 59z m240 -70 c37 -17 31 -44 -15 -68 -21 -11 -49 -20 -61 -20
-19 0 -19 2 10 29 17 16 31 38 31 50 0 24 1 25 35 9z m-296 -10 c-2 -2 -20
-16 -39 -33 l-35 -30 34 37 c19 21 37 36 39 33 3 -3 3 -6 1 -7z m98 -5 c3 -10
13 -26 21 -35 14 -16 13 -18 -4 -18 -32 0 -63 27 -57 50 7 25 31 26 40 3z
m113 -28 c-21 -25 -32 -17 -13 9 10 13 20 20 21 15 2 -5 -2 -16 -8 -24z"/>
<path d="M3220 3724 c0 -11 -5 -25 -12 -32 -8 -8 -5 -32 12 -97 18 -66 21 -99
16 -147 -4 -42 -3 -59 4 -52 21 21 13 315 -10 338 -7 7 -10 3 -10 -10z"/>
<path d="M3210 3349 c-7 -11 -10 -23 -7 -25 2 -2 9 7 15 21 14 30 7 33 -8 4z"/>
<path d="M3165 3290 c-10 -11 -13 -20 -8 -20 13 0 38 29 31 35 -3 3 -13 -4
-23 -15z"/>
<path d="M2246 3292 c-14 -23 8 -62 35 -62 10 0 19 -5 19 -12 0 -6 3 -9 6 -5
7 7 -36 87 -47 87 -4 0 -10 -4 -13 -8z"/>
<path d="M2299 3094 c-21 -20 -30 -23 -50 -16 -13 5 -30 7 -36 5 -17 -6 -16
-45 1 -68 13 -18 14 -18 27 2 7 12 19 19 26 16 7 -3 13 2 13 11 0 10 12 28 28
41 15 13 25 26 21 29 -3 3 -16 -6 -30 -20z"/>
<path d="M2170 3069 c0 -5 5 -7 10 -4 6 3 10 8 10 11 0 2 -4 4 -10 4 -5 0 -10
-5 -10 -11z"/>
<path d="M2964 2530 c23 -185 28 -250 23 -280 -13 -82 -36 -162 -51 -179 -9
-10 -16 -25 -16 -34 0 -9 -4 -17 -9 -17 -4 0 -24 -30 -42 -66 -19 -37 -49 -78
-66 -91 -18 -14 -33 -30 -33 -37 0 -6 -12 -24 -28 -41 -15 -16 -44 -56 -65
-87 -20 -32 -44 -58 -52 -58 -8 0 -15 -5 -15 -10 0 -13 -61 -51 -72 -44 -15 9
-8 -14 9 -32 16 -16 16 -16 -4 -10 -18 6 -20 3 -16 -21 4 -26 3 -27 -10 -10
-14 17 -16 17 -53 0 -22 -10 -42 -22 -46 -27 -3 -5 -17 -11 -30 -13 -13 -2
-25 -8 -26 -13 -2 -6 -8 -8 -13 -4 -9 5 -47 -26 -41 -34 2 -2 0 -7 -4 -10 -4
-4 -4 -1 0 6 4 6 2 12 -3 12 -6 0 -11 -5 -11 -11 0 -6 -7 -9 -15 -6 -8 4 -17
2 -20 -3 -3 -5 3 -11 12 -13 15 -4 15 -6 -4 -12 -32 -10 -29 -29 3 -21 16 4
23 3 20 -3 -4 -5 -1 -13 5 -16 5 -4 8 -14 5 -22 -4 -9 -2 -11 6 -7 7 5 9 0 6
-14 -4 -12 -2 -22 3 -22 5 0 8 -3 8 -7 -3 -20 2 -24 15 -14 16 14 71 -3 61
-19 -4 -6 1 -7 10 -3 13 5 14 7 3 14 -10 7 -8 9 7 10 32 2 49 -2 58 -14 6 -8
7 -4 4 8 -3 14 1 21 12 21 9 0 27 3 41 6 32 9 70 -16 52 -34 -9 -9 -12 -8 -12
5 0 9 -5 17 -11 17 -6 0 -8 -8 -4 -19 3 -10 -1 -24 -10 -31 -8 -7 -15 -17 -15
-22 0 -15 127 87 201 161 51 51 67 75 72 104 5 32 86 183 106 197 4 3 10 12
14 20 4 8 11 22 16 30 5 8 14 33 21 55 7 21 19 45 26 52 27 28 82 243 91 361
6 74 8 82 15 55 5 -18 11 -33 14 -33 10 0 -8 84 -36 163 -20 56 -23 74 -12 65
27 -22 -39 89 -70 119 l-30 28 6 -45z m-564 -1256 c0 -8 -4 -12 -10 -9 -5 3
-10 10 -10 16 0 5 5 9 10 9 6 0 10 -7 10 -16z"/>
<path d="M2086 2482 c-4 -13 -5 -26 -2 -29 10 -11 18 4 14 29 l-4 23 -8 -23z"/>
<path d="M2122 2480 c-15 -25 -15 -30 2 -30 13 0 26 20 26 41 0 16 -15 10 -28
-11z"/>
<path d="M2021 2384 c0 -11 3 -14 6 -6 3 7 2 16 -1 19 -3 4 -6 -2 -5 -13z"/>
<path d="M3112 2150 c0 -14 2 -19 5 -12 2 6 2 18 0 25 -3 6 -5 1 -5 -13z"/>
<path d="M3142 2150 c0 -14 2 -19 5 -12 2 6 2 18 0 25 -3 6 -5 1 -5 -13z"/>
<path d="M1086 2109 c3 -5 17 -9 31 -9 32 0 23 12 -12 15 -14 2 -23 -1 -19 -6z"/>
<path d="M3091 2029 c1 -41 5 -87 9 -104 4 -16 5 15 2 70 -6 118 -13 140 -11
34z"/>
<path d="M3123 2060 c0 -25 2 -35 4 -22 2 12 2 32 0 45 -2 12 -4 2 -4 -23z"/>
<path d="M1307 2075 c-5 -11 -10 -96 -11 -190 -2 -93 -1 -118 0 -55 2 63 9
124 15 135 5 12 9 45 7 75 -2 41 -5 50 -11 35z"/>
<path d="M1008 2073 c7 -3 16 -2 19 1 4 3 -2 6 -13 5 -11 0 -14 -3 -6 -6z"/>
<path d="M1144 2001 c4 -5 1 -11 -6 -13 -6 -2 -8 -10 -4 -16 12 -20 24 -14 24
13 0 14 -5 25 -10 25 -5 0 -7 -4 -4 -9z"/>
<path d="M868 1993 c7 -3 16 -2 19 1 4 3 -2 6 -13 5 -11 0 -14 -3 -6 -6z"/>
<path d="M790 1960 c8 -5 22 -10 30 -10 13 0 13 1 0 10 -8 5 -22 10 -30 10
-13 0 -13 -1 0 -10z"/>
<path d="M3420 1959 c0 -9 5 -42 11 -75 6 -32 15 -93 19 -134 l7 -75 2 65 c0
36 -6 101 -14 144 -15 76 -25 107 -25 75z"/>
<path d="M740 1950 c8 -5 20 -10 25 -10 6 0 3 5 -5 10 -8 5 -19 10 -25 10 -5
0 -3 -5 5 -10z"/>
<path d="M1126 1946 c4 -10 -2 -12 -19 -9 -33 7 -47 -16 -57 -94 -11 -83 -19
-410 -9 -368 4 17 7 77 8 135 1 128 16 264 31 288 10 15 11 15 5 -3 -4 -11 -9
-99 -12 -195 -2 -96 -8 -204 -14 -239 -5 -35 -8 -65 -6 -68 10 -9 28 133 28
217 1 47 4 102 8 121 6 27 9 16 14 -57 4 -49 5 -115 2 -145 l-4 -54 9 45 c5
25 9 99 9 165 1 73 7 144 16 178 19 72 19 83 1 90 -10 4 -13 1 -10 -7z m-20
-106 c-8 -30 -14 -45 -15 -32 -1 29 22 122 26 102 1 -8 -3 -40 -11 -70z"/>
<path d="M3352 1940 c0 -14 2 -19 5 -12 2 6 2 18 0 25 -3 6 -5 1 -5 -13z"/>
<path d="M3497 1900 c3 -30 7 -57 9 -59 8 -9 2 75 -6 94 -5 12 -6 -1 -3 -35z"/>
<path d="M3462 1910 c0 -19 2 -27 5 -17 2 9 2 25 0 35 -3 9 -5 1 -5 -18z"/>
<path d="M994 1905 l-30 -14 -13 -208 c-8 -114 -15 -260 -16 -323 l-3 -115 8
110 c4 61 12 187 19 280 6 94 14 190 18 215 7 43 8 41 14 -35 l5 -80 2 71 c1
47 7 77 18 90 15 18 15 18 9 -6 -3 -14 -10 -123 -14 -242 -5 -119 -12 -222
-16 -230 -6 -10 -5 -10 5 -1 10 9 16 71 21 230 5 120 11 230 15 246 7 30 3 31
-42 12z"/>
<path d="M1321 1799 c1 -68 5 -155 9 -194 4 -38 5 16 2 120 -3 105 -6 192 -8
194 -2 2 -3 -52 -3 -120z"/>
<path d="M3532 1890 c0 -19 2 -27 5 -17 2 9 2 25 0 35 -3 9 -5 1 -5 -18z"/>
<path d="M3565 1895 c2 -16 9 -118 15 -225 12 -215 18 -258 19 -133 1 101 -17
322 -30 360 l-9 28 5 -30z"/>
<path d="M3363 1850 c0 -36 2 -50 4 -32 2 17 2 47 0 65 -2 17 -4 3 -4 -33z"/>
<path d="M3065 1855 c-3 -26 -4 -49 -2 -51 3 -3 8 16 12 41 3 26 4 49 2 51 -3
3 -8 -16 -12 -41z"/>
<path d="M3635 1845 c4 -33 10 -111 14 -173 5 -62 12 -116 16 -120 4 -4 5 18
1 48 -3 30 -8 105 -12 165 -4 61 -11 117 -16 125 -6 10 -7 -6 -3 -45z"/>
<path d="M3607 1815 c3 -44 9 -134 14 -200 7 -114 7 -113 2 30 -2 83 -8 173
-13 200 -7 40 -8 34 -3 -30z"/>
<path d="M1154 1869 c-4 -7 -8 -78 -10 -158 l-3 -146 9 135 c5 74 11 145 13
158 5 24 2 28 -9 11z"/>
<path d="M1262 1855 c0 -16 2 -22 5 -12 2 9 2 23 0 30 -3 6 -5 -1 -5 -18z"/>
<path d="M3416 1825 c3 -33 10 -64 15 -70 9 -9 5 25 -12 95 -6 26 -7 20 -3
-25z"/>
<path d="M3677 1775 c3 -60 9 -139 13 -175 6 -42 6 -19 3 65 -3 72 -9 150 -13
175 -5 27 -6 0 -3 -65z"/>
<path d="M3707 1815 c22 -319 22 -322 17 -150 -2 88 -8 174 -13 190 -6 22 -8
10 -4 -40z"/>
<path d="M916 1857 c-19 -14 -33 -162 -40 -447 -4 -147 -3 -148 3 -35 24 386
32 459 55 477 24 20 9 25 -18 5z"/>
<path d="M3478 1725 c3 -93 10 -163 19 -185 7 -19 11 -24 7 -10 -3 14 -8 77
-10 141 -3 64 -8 136 -13 160 -4 26 -6 -18 -3 -106z"/>
<path d="M3747 1735 c3 -71 7 -132 9 -134 7 -8 2 164 -6 214 -5 32 -6 2 -3
-80z"/>
<path d="M3777 1780 c3 -47 7 -87 9 -89 7 -8 2 124 -6 149 -4 14 -6 -12 -3
-60z"/>
<path d="M3548 1700 c2 -85 6 -157 8 -159 7 -8 2 192 -6 254 -4 35 -5 -3 -2
-95z"/>
<path d="M856 1821 c-10 -11 -16 -28 -13 -38 4 -15 5 -14 6 4 0 12 6 25 11 28
7 4 8 -17 5 -62 -23 -274 -31 -415 -25 -458 4 -36 8 -5 13 110 8 193 24 395
33 418 8 23 -9 21 -30 -2z"/>
<path d="M922 1690 c-7 -85 -14 -218 -16 -295 -4 -153 -4 -151 20 175 9 124
14 236 12 250 -2 14 -9 -45 -16 -130z"/>
<path d="M1210 1825 c-7 -8 -17 -12 -22 -9 -5 4 -8 -6 -6 -22 4 -34 28 -45 28
-13 0 12 7 31 17 41 9 10 11 18 6 18 -6 0 -16 -7 -23 -15z"/>
<path d="M3012 1779 c-16 -90 -14 -120 4 -39 8 36 13 74 12 85 -2 11 -9 -10
-16 -46z"/>
<path d="M3815 1545 c0 -176 2 -265 6 -215 9 108 9 376 0 455 -3 33 -6 -75 -6
-240z"/>
<path d="M3848 1632 c4 -297 8 -324 10 -57 0 127 -2 238 -6 247 -4 10 -6 -76
-4 -190z"/>
<path d="M3513 1785 c0 -27 2 -38 4 -22 2 15 2 37 0 50 -2 12 -4 0 -4 -28z"/>
<path d="M3882 1733 c4 -54 10 -102 13 -108 3 -5 3 15 0 45 -3 30 -5 79 -5
108 0 28 -4 52 -8 52 -4 0 -4 -44 0 -97z"/>
<path d="M3915 1609 c0 -123 3 -199 6 -169 9 74 10 305 1 354 -4 21 -7 -62 -7
-185z"/>
<path d="M807 1803 c-2 -5 -1 -19 4 -33 7 -23 7 -23 8 8 1 31 -3 40 -12 25z"/>
<path d="M1367 1765 c3 -27 7 -52 9 -54 7 -8 2 54 -6 79 -6 17 -7 9 -3 -25z"/>
<path d="M3948 1693 c4 -218 8 -239 10 -60 1 97 -1 177 -5 177 -5 0 -7 -53 -5
-117z"/>
<path d="M3983 1770 c0 -25 2 -35 4 -22 2 12 2 32 0 45 -2 12 -4 2 -4 -23z"/>
<path d="M4046 1587 c-4 -120 -6 -221 -3 -223 6 -7 20 371 15 411 -2 17 -7
-68 -12 -188z"/>
<path d="M775 1745 c-4 -25 -5 -48 -2 -51 2 -3 8 16 12 41 3 26 4 49 2 52 -3
3 -9 -16 -12 -42z"/>
<path d="M1243 1783 c4 -3 0 -15 -10 -25 -15 -17 -15 -18 0 -18 10 0 17 4 17
9 0 5 3 16 6 25 4 10 1 16 -7 16 -7 0 -9 -3 -6 -7z"/>
<path d="M2975 1745 c-4 -25 -5 -48 -2 -51 2 -3 8 16 12 41 3 26 4 49 2 52 -3
3 -9 -16 -12 -42z"/>
<path d="M747 1773 c-4 -3 -6 -27 -5 -52 l1 -46 4 40 c3 22 9 45 15 52 11 13
-3 19 -15 6z"/>
<path d="M3371 1759 c0 -13 4 -33 9 -44 7 -14 8 -8 3 20 -7 46 -13 59 -12 24z"/>
<path d="M4022 1684 c-1 -56 -4 -123 -7 -150 l-4 -49 10 48 c5 27 8 94 6 150
l-3 102 -2 -101z"/>
<path d="M4115 1693 c0 -49 -3 -135 -6 -193 -4 -61 -3 -86 1 -60 13 73 24 340
14 340 -5 0 -9 -39 -9 -87z"/>
<path d="M4083 1641 c-1 -101 0 -114 7 -66 10 79 12 183 3 188 -5 3 -9 -52
-10 -122z"/>
<path d="M4186 1658 c-4 -57 -9 -123 -11 -148 -4 -34 -3 -39 4 -20 9 28 26
270 18 270 -2 0 -7 -46 -11 -102z"/>
<path d="M685 1740 c-3 -5 0 -7 9 -4 10 4 16 -3 19 -23 4 -27 4 -27 6 5 1 31
-20 45 -34 22z"/>
<path d="M821 1605 c-7 -82 -11 -163 -9 -180 3 -17 6 -4 7 31 0 33 6 97 12
140 6 44 9 98 7 120 -2 21 -9 -28 -17 -111z"/>
<path d="M4151 1693 c-1 -32 -6 -134 -11 -228 -5 -93 -9 -226 -8 -295 1 -69 3
-93 5 -55 13 332 25 583 30 606 3 16 1 29 -4 29 -5 0 -11 -26 -12 -57z"/>
<path d="M801 1740 c-3 -8 -30 -341 -31 -372 0 -16 5 -28 10 -28 6 0 10 38 10
93 0 52 5 130 11 174 8 64 9 156 0 133z"/>
<path d="M3033 1705 c0 -22 2 -30 4 -17 2 12 2 30 0 40 -3 9 -5 -1 -4 -23z"/>
<path d="M4223 1660 c0 -47 2 -66 4 -42 2 23 2 61 0 85 -2 23 -4 4 -4 -43z"/>
<path d="M3416 1705 c8 -37 14 -45 14 -19 0 10 -5 26 -10 34 -8 11 -9 7 -4
-15z"/>
<path d="M3523 1650 c0 -47 2 -66 4 -42 2 23 2 61 0 85 -2 23 -4 4 -4 -43z"/>
<path d="M4262 1705 c0 -16 2 -22 5 -12 2 9 2 23 0 30 -3 6 -5 -1 -5 -18z"/>
<path d="M626 1712 c-2 -4 4 -8 15 -8 10 0 19 4 19 8 0 4 -6 8 -14 8 -8 0 -17
-4 -20 -8z"/>
<path d="M677 1688 c-17 -95 -28 -210 -24 -263 l3 -60 2 70 c1 39 9 117 17
174 8 57 13 106 11 108 -2 2 -6 -11 -9 -29z"/>
<path d="M975 1583 c-11 -193 -14 -383 -5 -316 9 63 24 453 18 453 -3 0 -9
-62 -13 -137z"/>
<path d="M4285 1605 c-4 -64 -5 -118 -3 -121 3 -2 8 48 12 112 4 63 5 118 3
121 -3 2 -8 -48 -12 -112z"/>
<path d="M3292 1690 c0 -14 2 -19 5 -12 2 6 2 18 0 25 -3 6 -5 1 -5 -13z"/>
<path d="M3988 1660 c-4 -30 -7 -86 -7 -125 l2 -70 9 70 c5 39 7 95 6 125 l-3
55 -7 -55z"/>
<path d="M580 1670 c0 -16 2 -30 4 -30 2 0 6 14 8 30 3 17 1 30 -4 30 -4 0 -8
-13 -8 -30z"/>
<path d="M636 1643 c-3 -27 -8 -100 -10 -163 l-4 -115 8 105 c4 58 11 131 15
163 4 31 5 57 2 57 -3 0 -8 -21 -11 -47z"/>
<path d="M1383 1665 c3 -16 9 -55 13 -85 3 -30 10 -64 15 -75 7 -19 8 -19 8 2
1 29 -27 174 -35 182 -3 3 -4 -7 -1 -24z"/>
<path d="M3362 1670 c0 -14 2 -19 5 -12 2 6 2 18 0 25 -3 6 -5 1 -5 -13z"/>
<path d="M517 1673 c-4 -3 -6 -22 -6 -42 l1 -36 8 40 c8 42 8 49 -3 38z"/>
<path d="M547 1658 c-3 -13 -8 -48 -11 -78 -5 -47 -3 -44 9 19 8 41 13 77 11
78 -2 2 -6 -6 -9 -19z"/>
<path d="M605 1625 c-4 -31 -5 -58 -3 -61 3 -2 8 21 12 52 4 31 5 59 2 61 -2
3 -8 -21 -11 -52z"/>
<path d="M702 1655 c0 -16 2 -22 5 -12 2 9 2 23 0 30 -3 6 -5 -1 -5 -18z"/>
<path d="M751 1527 c-7 -87 -11 -160 -9 -163 7 -6 31 256 27 291 -2 17 -10
-41 -18 -128z"/>
<path d="M3785 1498 c-4 -101 -5 -201 -3 -223 2 -22 7 58 11 178 5 121 6 221
4 224 -3 2 -8 -78 -12 -179z"/>
<path d="M720 1538 c-7 -73 -11 -142 -8 -153 2 -11 9 47 17 128 7 82 11 150 8
153 -2 2 -10 -55 -17 -128z"/>
<path d="M1166 1608 c-5 -36 -6 -72 -3 -80 6 -18 20 93 15 123 -2 13 -8 -6
-12 -43z"/>
<path d="M3331 1649 c-1 -27 28 -123 35 -116 3 2 0 17 -7 33 -6 16 -14 47 -19
69 -5 28 -8 33 -9 14z"/>
<path d="M1367 1545 c3 -66 7 -122 9 -124 7 -8 2 132 -6 189 -6 37 -7 16 -3
-65z"/>
<path d="M2992 1640 c0 -14 2 -19 5 -12 2 6 2 18 0 25 -3 6 -5 1 -5 -13z"/>
<path d="M3302 1640 c0 -14 2 -19 5 -12 2 6 2 18 0 25 -3 6 -5 1 -5 -13z"/>
<path d="M3432 1645 c0 -21 36 -128 37 -110 0 6 -8 37 -18 70 -11 33 -19 51
-19 40z"/>
<path d="M4253 1605 c0 -33 2 -45 4 -27 2 18 2 45 0 60 -2 15 -4 0 -4 -33z"/>
<path d="M4322 1630 c0 -19 2 -27 5 -17 2 9 2 25 0 35 -3 9 -5 1 -5 -18z"/>
<path d="M452 1630 c0 -14 2 -19 5 -12 2 6 2 18 0 25 -3 6 -5 1 -5 -13z"/>
<path d="M476 1619 c-3 -17 -5 -97 -4 -178 l2 -146 6 175 c3 96 5 176 4 178
-1 1 -4 -12 -8 -29z"/>
<path d="M1302 1630 c0 -14 2 -19 5 -12 2 6 2 18 0 25 -3 6 -5 1 -5 -13z"/>
<path d="M3402 1630 c0 -14 2 -19 5 -12 2 6 2 18 0 25 -3 6 -5 1 -5 -13z"/>
<path d="M1201 1624 c0 -11 3 -14 6 -6 3 7 2 16 -1 19 -3 4 -6 -2 -5 -13z"/>
<path d="M3371 1625 c1 -21 27 -98 28 -80 0 6 -6 30 -13 55 -8 25 -15 36 -15
25z"/>
<path d="M406 1578 c-6 -57 -8 -284 -2 -277 4 4 15 329 11 329 -1 0 -5 -24 -9
-52z"/>
<path d="M566 1593 c-3 -21 -5 -90 -4 -153 l1 -115 7 150 c4 83 6 151 5 153
-1 1 -5 -14 -9 -35z"/>
<path d="M376 1583 c-3 -21 -7 -141 -9 -268 -2 -126 -2 -203 0 -170 6 107 20
470 18 473 -2 2 -6 -14 -9 -35z"/>
<path d="M691 1557 c-13 -74 -14 -185 -1 -242 5 -26 6 -6 3 61 -4 58 -1 128 6
168 7 38 10 70 8 73 -3 2 -10 -25 -16 -60z"/>
<path d="M342 1528 c0 -46 0 -78 3 -73 7 19 12 155 6 155 -4 0 -8 -37 -9 -82z"/>
<path d="M3312 1590 c0 -14 2 -19 5 -12 2 6 2 18 0 25 -3 6 -5 1 -5 -13z"/>
<path d="M436 1569 c-3 -17 -5 -50 -5 -73 1 -30 4 -23 10 29 8 74 6 97 -5 44z"/>
<path d="M2945 1589 c-4 -6 -5 -12 -2 -15 2 -3 7 2 10 11 7 17 1 20 -8 4z"/>
<path d="M3281 1584 c0 -11 3 -14 6 -6 3 7 2 16 -1 19 -3 4 -6 -2 -5 -13z"/>
<path d="M276 1553 c-3 -21 -7 -108 -10 -193 -4 -160 0 -129 18 138 7 93 2
124 -8 55z"/>
<path d="M3233 1555 c0 -22 2 -30 4 -17 2 12 2 30 0 40 -3 9 -5 -1 -4 -23z"/>
<path d="M3886 1548 c-9 -71 -21 -354 -17 -374 3 -11 10 78 17 196 11 209 11
267 0 178z"/>
<path d="M307 1515 c-4 -39 -6 -110 -5 -160 1 -76 2 -67 9 60 9 160 7 216 -4
100z"/>
<path d="M502 1555 c0 -16 2 -22 5 -12 2 9 2 23 0 30 -3 6 -5 -1 -5 -18z"/>
<path d="M3421 1570 c0 -8 4 -24 9 -35 5 -13 9 -14 9 -5 0 8 -4 24 -9 35 -5
13 -9 14 -9 5z"/>
<path d="M3752 1469 c-1 -64 -4 -165 -6 -225 l-5 -109 10 95 c5 52 8 154 6
225 l-3 130 -2 -116z"/>
<path d="M213 1558 c-4 -7 -8 -119 -9 -248 l-2 -235 8 230 c4 127 10 238 14
248 9 20 1 23 -11 5z"/>
<path d="M1440 1551 c0 -11 4 -22 9 -25 4 -3 6 6 3 19 -5 30 -12 33 -12 6z"/>
<path d="M2968 1519 c-1 -29 0 -77 3 -108 5 -45 6 -34 8 52 1 112 -5 144 -11
56z"/>
<path d="M3013 1515 c0 -33 2 -45 4 -27 2 18 2 45 0 60 -2 15 -4 0 -4 -33z"/>
<path d="M4313 1505 c0 -38 2 -53 4 -32 2 20 2 52 0 70 -2 17 -4 1 -4 -38z"/>
<path d="M1186 1538 c-3 -13 -5 -39 -5 -58 1 -27 3 -22 9 20 9 58 7 77 -4 38z"/>
<path d="M3291 1544 c0 -11 3 -14 6 -6 3 7 2 16 -1 19 -3 4 -6 -2 -5 -13z"/>
<path d="M4207 1473 c-4 -49 -8 -207 -11 -353 -4 -281 -3 -272 14 159 11 268
9 367 -3 194z"/>
<path d="M182 1530 c0 -14 2 -19 5 -12 2 6 2 18 0 25 -3 6 -5 1 -5 -13z"/>
<path d="M243 1500 c0 -30 2 -43 4 -27 2 15 2 39 0 55 -2 15 -4 2 -4 -28z"/>
<path d="M594 1455 c0 -55 1 -76 3 -47 2 29 2 74 0 100 -2 26 -3 2 -3 -53z"/>
<path d="M1132 1520 c0 -19 2 -27 5 -17 2 9 2 25 0 35 -3 9 -5 1 -5 -18z"/>
<path d="M2935 1538 c-11 -37 -34 -161 -39 -213 -5 -57 7 -5 43 183 7 39 5 57
-4 30z"/>
<path d="M3261 1534 c0 -11 3 -14 6 -6 3 7 2 16 -1 19 -3 4 -6 -2 -5 -13z"/>
<path d="M146 1525 c-3 -9 -5 -35 -5 -58 2 -40 2 -39 9 13 7 59 6 71 -4 45z"/>
<path d="M4236 1363 c-4 -98 -9 -203 -11 -233 -3 -43 -3 -48 4 -23 9 36 26
433 18 433 -2 0 -7 -80 -11 -177z"/>
<path d="M3401 1520 c0 -8 4 -22 9 -30 12 -18 12 -2 0 25 -6 13 -9 15 -9 5z"/>
<path d="M107 1500 c3 -11 7 -20 9 -20 2 0 4 9 4 20 0 11 -4 20 -9 20 -5 0 -7
-9 -4 -20z"/>
<path d="M3211 1494 c0 -11 3 -14 6 -6 3 7 2 16 -1 19 -3 4 -6 -2 -5 -13z"/>
<path d="M3441 1505 c0 -5 6 -21 14 -35 8 -14 14 -20 14 -15 0 6 -6 21 -14 35
-8 14 -14 21 -14 15z"/>
<path d="M4067 1097 c-5 -230 -7 -421 -4 -423 6 -6 20 680 15 771 -1 39 -7
-118 -11 -348z"/>
<path d="M173 1425 c0 -38 2 -53 4 -32 2 20 2 52 0 70 -2 17 -4 1 -4 -38z"/>
<path d="M504 1360 c0 -74 1 -105 3 -67 2 37 2 97 0 135 -2 37 -3 6 -3 -68z"/>
<path d="M1152 1470 c0 -14 2 -19 5 -12 2 6 2 18 0 25 -3 6 -5 1 -5 -13z"/>
<path d="M3381 1485 c0 -5 6 -21 14 -35 8 -14 14 -20 14 -15 0 6 -6 21 -14 35
-8 14 -14 21 -14 15z"/>
<path d="M1121 1473 c-1 -6 -4 -20 -7 -30 -5 -17 -5 -17 6 0 6 10 9 23 6 30
-3 9 -5 9 -5 0z"/>
<path d="M1411 1434 c1 -27 5 -62 9 -79 5 -18 6 1 3 45 -7 86 -14 107 -12 34z"/>
<path d="M3250 1466 c0 -8 4 -17 9 -20 5 -4 7 3 4 14 -6 23 -13 26 -13 6z"/>
<path d="M3350 1475 c0 -5 5 -17 10 -25 5 -8 10 -10 10 -5 0 6 -5 17 -10 25
-5 8 -10 11 -10 5z"/>
<path d="M3682 1330 c-1 -85 -4 -195 -7 -245 l-4 -90 10 75 c5 41 8 152 6 245
l-3 170 -2 -155z"/>
<path d="M4004 1165 c0 -176 2 -247 3 -157 2 90 2 234 0 320 -1 86 -3 13 -3
-163z"/>
<path d="M4265 1308 c-4 -90 -5 -173 -3 -183 2 -11 8 60 12 158 4 98 6 181 3
183 -3 3 -8 -68 -12 -158z"/>
<path d="M104 1250 c0 -118 2 -167 3 -107 2 59 2 155 0 215 -1 59 -3 10 -3
-108z"/>
<path d="M1201 1444 c0 -11 3 -14 6 -6 3 7 2 16 -1 19 -3 4 -6 -2 -5 -13z"/>
<path d="M3561 1444 c0 -11 3 -14 6 -6 3 7 2 16 -1 19 -3 4 -6 -2 -5 -13z"/>
<path d="M3647 1350 c-4 -63 -9 -254 -11 -425 l-5 -310 14 410 c14 408 15 545
2 325z"/>
<path d="M3974 1370 c0 -52 1 -74 3 -47 2 26 2 68 0 95 -2 26 -3 4 -3 -48z"/>
<path d="M4167 1363 c-7 -104 -10 -419 -3 -412 5 6 18 509 13 509 -2 0 -7 -44
-10 -97z"/>
<path d="M437 1430 c-3 -11 -1 -20 4 -20 5 0 9 9 9 20 0 11 -2 20 -4 20 -2 0
-6 -9 -9 -20z"/>
<path d="M1471 1434 c0 -11 3 -14 6 -6 3 7 2 16 -1 19 -3 4 -6 -2 -5 -13z"/>
<path d="M2866 1344 c-10 -58 -16 -108 -13 -110 2 -2 12 43 21 102 10 58 16
108 13 110 -2 2 -12 -43 -21 -102z"/>
<path d="M1166 1423 c-6 -14 -5 -15 5 -6 7 7 10 15 7 18 -3 3 -9 -2 -12 -12z"/>
<path d="M1442 1420 c0 -14 2 -19 5 -12 2 6 2 18 0 25 -3 6 -5 1 -5 -13z"/>
<path d="M2851 1424 c0 -11 3 -14 6 -6 3 7 2 16 -1 19 -3 4 -6 -2 -5 -13z"/>
<path d="M3331 1430 c0 -8 4 -24 9 -35 5 -13 9 -14 9 -5 0 8 -4 24 -9 35 -5
13 -9 14 -9 5z"/>
<path d="M3942 1420 c0 -14 2 -19 5 -12 2 6 2 18 0 25 -3 6 -5 1 -5 -13z"/>
<path d="M234 1300 c0 -74 1 -105 3 -67 2 37 2 97 0 135 -2 37 -3 6 -3 -68z"/>
<path d="M534 1290 c0 -80 2 -112 3 -72 2 39 2 105 0 145 -1 39 -3 7 -3 -73z"/>
<path d="M3371 1414 c0 -11 3 -14 6 -6 3 7 2 16 -1 19 -3 4 -6 -2 -5 -13z"/>
<path d="M3441 1414 c0 -11 3 -14 6 -6 3 7 2 16 -1 19 -3 4 -6 -2 -5 -13z"/>
<path d="M4306 1419 c-7 -23 -16 -192 -9 -186 6 7 22 189 17 196 -2 2 -6 -2
-8 -10z"/>
<path d="M133 1380 c0 -25 2 -35 4 -22 2 12 2 32 0 45 -2 12 -4 2 -4 -23z"/>
<path d="M1101 1404 c0 -11 3 -14 6 -6 3 7 2 16 -1 19 -3 4 -6 -2 -5 -13z"/>
<path d="M3271 1404 c0 -11 3 -14 6 -6 3 7 2 16 -1 19 -3 4 -6 -2 -5 -13z"/>
<path d="M334 1250 c0 -91 2 -128 3 -82 2 45 2 119 0 165 -1 45 -3 8 -3 -83z"/>
<path d="M1351 1394 c0 -11 3 -14 6 -6 3 7 2 16 -1 19 -3 4 -6 -2 -5 -13z"/>
<path d="M434 1165 c0 -132 2 -185 3 -117 2 68 2 176 0 240 -1 64 -3 9 -3
-123z"/>
<path d="M1012 1384 c-1 -12 -4 -37 -7 -55 -5 -31 -5 -32 5 -9 6 13 9 38 7 55
-2 18 -4 21 -5 9z"/>
<path d="M1071 1384 c0 -11 3 -14 6 -6 3 7 2 16 -1 19 -3 4 -6 -2 -5 -13z"/>
<path d="M1151 1384 c0 -11 3 -14 6 -6 3 7 2 16 -1 19 -3 4 -6 -2 -5 -13z"/>
<path d="M1183 1350 c0 -30 2 -43 4 -27 2 15 2 39 0 55 -2 15 -4 2 -4 -28z"/>
<path d="M1206 1384 c-9 -22 -7 -44 2 -44 5 0 9 14 10 30 1 33 -3 38 -12 14z"/>
<path d="M1242 1380 c0 -14 2 -19 5 -12 2 6 2 18 0 25 -3 6 -5 1 -5 -13z"/>
<path d="M1382 1370 c0 -19 2 -27 5 -17 2 9 2 25 0 35 -3 9 -5 1 -5 -18z"/>
<path d="M2836 1378 c-3 -13 -5 -32 -5 -43 1 -11 5 -2 10 19 10 42 6 62 -5 24z"/>
<path d="M3706 1200 c-8 -206 -9 -291 -2 -297 5 -6 19 436 14 472 -2 17 -7
-62 -12 -175z"/>
<path d="M1122 1360 c0 -19 2 -27 5 -17 2 9 2 25 0 35 -3 9 -5 1 -5 -18z"/>
<path d="M1457 1345 c11 -92 22 -136 16 -60 -3 39 -9 79 -14 90 -5 12 -6 -1
-2 -30z"/>
<path d="M3311 1374 c0 -11 3 -14 6 -6 3 7 2 16 -1 19 -3 4 -6 -2 -5 -13z"/>
<path d="M3381 1374 c0 -11 3 -14 6 -6 3 7 2 16 -1 19 -3 4 -6 -2 -5 -13z"/>
<path d="M3411 1385 c1 -19 18 -51 18 -35 0 8 -4 22 -9 30 -5 8 -9 11 -9 5z"/>
<path d="M3451 1374 c0 -11 3 -14 6 -6 3 7 2 16 -1 19 -3 4 -6 -2 -5 -13z"/>
<path d="M3935 900 c0 -267 1 -376 2 -242 2 133 2 351 0 485 -1 133 -2 24 -2
-243z"/>
<path d="M813 1310 c0 -36 2 -50 4 -32 2 17 2 47 0 65 -2 17 -4 3 -4 -33z"/>
<path d="M1092 1345 c0 -16 2 -22 5 -12 2 9 2 23 0 30 -3 6 -5 -1 -5 -18z"/>
<path d="M2943 1290 c0 -47 2 -66 4 -42 2 23 2 61 0 85 -2 23 -4 4 -4 -43z"/>
<path d="M3013 1290 c0 -47 2 -66 4 -42 2 23 2 61 0 85 -2 23 -4 4 -4 -43z"/>
<path d="M3356 1345 c8 -37 14 -45 14 -19 0 10 -5 26 -10 34 -8 11 -9 7 -4
-15z"/>
<path d="M4095 1015 c-4 -196 -5 -358 -3 -361 3 -3 9 155 13 351 4 196 5 358
2 361 -2 3 -8 -155 -12 -351z"/>
<path d="M728 1200 c3 -91 6 -167 8 -169 7 -7 2 201 -6 269 -4 37 -5 -6 -2
-100z"/>
<path d="M1531 1344 c0 -11 3 -14 6 -6 3 7 2 16 -1 19 -3 4 -6 -2 -5 -13z"/>
<path d="M2802 1325 c-1 -22 -4 -58 -7 -80 l-5 -40 11 40 c5 22 8 58 6 80 l-4
40 -1 -40z"/>
<path d="M604 1260 c0 -52 1 -74 3 -47 2 26 2 68 0 95 -2 26 -3 4 -3 -48z"/>
<path d="M664 1165 c0 -104 2 -146 3 -92 2 54 2 139 0 190 -1 51 -3 7 -3 -98z"/>
<path d="M753 1305 c0 -27 2 -38 4 -22 2 15 2 37 0 50 -2 12 -4 0 -4 -28z"/>
<path d="M1056 1319 c-3 -17 -5 -50 -5 -73 1 -30 4 -23 10 29 8 74 6 97 -5 44z"/>
<path d="M1140 1295 c0 -35 4 -54 10 -50 6 3 10 26 10 50 0 24 -4 47 -10 50
-6 4 -10 -15 -10 -50z"/>
<path d="M2769 1295 c-5 -60 -4 -73 7 -63 3 3 4 32 2 64 l-3 59 -6 -60z"/>
<path d="M3902 1025 c-1 -181 -4 -388 -6 -460 l-5 -130 10 125 c5 69 8 276 6
460 l-2 335 -3 -330z"/>
<path d="M634 1225 c0 -66 1 -92 3 -57 2 34 2 88 0 120 -2 31 -3 3 -3 -63z"/>
<path d="M1031 1324 c0 -11 3 -14 6 -6 3 7 2 16 -1 19 -3 4 -6 -2 -5 -13z"/>
<path d="M3200 1331 c0 -6 4 -13 10 -16 6 -3 7 1 4 9 -7 18 -14 21 -14 7z"/>
<path d="M144 1015 c0 -176 2 -247 3 -157 2 90 2 234 0 320 -1 86 -3 13 -3
-163z"/>
<path d="M174 1115 c0 -121 2 -169 3 -107 2 62 2 161 0 220 -1 59 -3 8 -3
-113z"/>
<path d="M1392 1310 c0 -14 4 -36 8 -50 6 -20 8 -21 8 -5 0 11 -4 34 -8 50 -7
27 -8 27 -8 5z"/>
<path d="M3331 1314 c0 -11 3 -14 6 -6 3 7 2 16 -1 19 -3 4 -6 -2 -5 -13z"/>
<path d="M3842 1300 c0 -19 2 -27 5 -17 2 9 2 25 0 35 -3 9 -5 1 -5 -18z"/>
<path d="M782 1290 c0 -19 2 -27 5 -17 2 9 2 25 0 35 -3 9 -5 1 -5 -18z"/>
<path d="M1357 1306 c-4 -10 -5 -21 -2 -24 9 -9 17 6 13 25 -3 17 -4 17 -11
-1z"/>
<path d="M1433 1285 c0 -22 2 -30 4 -17 2 12 2 30 0 40 -3 9 -5 -1 -4 -23z"/>
<path d="M1113 1265 c0 -27 2 -38 4 -22 2 15 2 37 0 50 -2 12 -4 0 -4 -28z"/>
<path d="M1541 1305 c1 -19 18 -51 18 -35 0 8 -4 22 -9 30 -5 8 -9 11 -9 5z"/>
<path d="M2742 1290 c0 -14 2 -19 5 -12 2 6 2 18 0 25 -3 6 -5 1 -5 -13z"/>
<path d="M2823 1255 c0 -33 2 -45 4 -27 2 18 2 45 0 60 -2 15 -4 0 -4 -33z"/>
<path d="M4032 1150 c-1 -91 -4 -237 -6 -325 l-5 -160 10 155 c5 85 8 232 6
325 l-3 170 -2 -165z"/>
<path d="M3431 1284 c0 -11 3 -14 6 -6 3 7 2 16 -1 19 -3 4 -6 -2 -5 -13z"/>
<path d="M462 1194 c-1 -56 -4 -130 -7 -165 l-4 -64 10 60 c5 33 8 107 6 165
l-3 105 -2 -101z"/>
<path d="M1016 1221 c-3 -41 -4 -76 -2 -78 6 -6 19 123 14 139 -3 7 -8 -20
-12 -61z"/>
<path d="M1082 1264 c-1 -17 -4 -47 -7 -65 l-5 -34 11 34 c5 18 8 47 6 65 l-4
31 -1 -31z"/>
<path d="M1330 1281 c0 -5 -13 -14 -30 -21 -16 -7 -30 -20 -30 -29 0 -9 3 -12
8 -6 4 6 19 16 35 24 23 12 39 41 22 41 -3 0 -5 -4 -5 -9z"/>
<path d="M2972 1270 c0 -14 2 -19 5 -12 2 6 2 18 0 25 -3 6 -5 1 -5 -13z"/>
<path d="M3401 1274 c0 -11 3 -14 6 -6 3 7 2 16 -1 19 -3 4 -6 -2 -5 -13z"/>
<path d="M993 1240 c0 -25 2 -35 4 -22 2 12 2 32 0 45 -2 12 -4 2 -4 -23z"/>
<path d="M2675 1269 c-4 -6 -5 -12 -2 -15 2 -3 7 2 10 11 7 17 1 20 -8 4z"/>
<path d="M394 1170 c0 -58 1 -81 3 -52 2 28 2 76 0 105 -2 28 -3 5 -3 -53z"/>
<path d="M691 995 c-7 -154 -11 -329 -9 -390 3 -100 4 -95 6 48 1 86 7 246 13
355 6 108 9 213 7 232 -2 19 -9 -91 -17 -245z"/>
<path d="M1520 1254 c0 -10 5 -26 10 -34 8 -11 9 -7 4 15 -8 37 -14 45 -14 19z"/>
<path d="M2702 1223 c-7 -25 -11 -47 -9 -50 2 -2 10 17 17 42 7 25 11 48 8 50
-2 2 -10 -16 -16 -42z"/>
<path d="M3577 1260 c-3 -8 -8 -143 -10 -300 -3 -157 -4 -278 -2 -270 2 8 9
134 16 280 11 251 10 326 -4 290z"/>
<path d="M3607 1103 c-4 -93 -9 -206 -12 -253 -3 -64 -2 -75 4 -45 10 44 27
465 19 465 -3 0 -8 -75 -11 -167z"/>
<path d="M1621 1244 c0 -11 3 -14 6 -6 3 7 2 16 -1 19 -3 4 -6 -2 -5 -13z"/>
<path d="M3542 1095 c-1 -93 -7 -222 -12 -285 -5 -63 -5 -119 -1 -123 10 -10
24 337 19 478 -3 74 -4 55 -6 -70z"/>
<path d="M3834 1145 c0 -66 1 -92 3 -57 2 34 2 88 0 120 -2 31 -3 3 -3 -63z"/>
<path d="M558 1133 c-2 -65 -3 -273 -3 -463 0 -190 -3 -399 -6 -465 -6 -108
-6 -112 3 -35 8 79 19 1080 12 1080 -2 0 -5 -53 -6 -117z"/>
<path d="M764 1085 c0 -93 2 -133 3 -88 2 45 2 122 0 170 -1 48 -3 12 -3 -82z"/>
<path d="M787 916 c-4 -186 -6 -340 -4 -343 6 -6 19 526 15 612 -1 39 -7 -82
-11 -269z"/>
<path d="M1561 1234 c0 -11 3 -14 6 -6 3 7 2 16 -1 19 -3 4 -6 -2 -5 -13z"/>
<path d="M1591 1234 c0 -11 3 -14 6 -6 3 7 2 16 -1 19 -3 4 -6 -2 -5 -13z"/>
<path d="M3041 1234 c0 -11 3 -14 6 -6 3 7 2 16 -1 19 -3 4 -6 -2 -5 -13z"/>
<path d="M3512 1250 c-2 -3 -5 -113 -7 -245 -3 -190 -2 -221 6 -150 8 78 9
409 1 395z"/>
<path d="M858 1070 c2 -96 5 -179 7 -185 7 -20 3 272 -4 315 -4 25 -6 -34 -3
-130z"/>
<path d="M882 1225 c0 -11 4 -33 8 -50 l8 -30 0 30 c0 17 -3 39 -8 50 l-9 20
1 -20z"/>
<path d="M3406 1178 c-7 -84 -18 -713 -12 -707 6 6 27 761 22 766 -2 3 -7 -24
-10 -59z"/>
<path d="M3438 1103 c-1 -76 -2 -151 -3 -168 -7 -136 -11 -441 -5 -355 12 155
24 660 17 660 -4 0 -8 -62 -9 -137z"/>
<path d="M3466 869 c-4 -204 -5 -373 -2 -377 3 -3 7 48 7 114 1 65 4 235 8
377 3 141 3 257 0 257 -3 0 -9 -167 -13 -371z"/>
<path d="M3804 1135 c0 -60 1 -84 3 -52 2 32 2 81 0 110 -2 29 -3 3 -3 -58z"/>
<path d="M822 1205 c0 -16 2 -22 5 -12 2 9 2 23 0 30 -3 6 -5 -1 -5 -18z"/>
<path d="M1412 1210 c0 -14 2 -19 5 -12 2 6 2 18 0 25 -3 6 -5 1 -5 -13z"/>
<path d="M1441 1214 c0 -11 3 -14 6 -6 3 7 2 16 -1 19 -3 4 -6 -2 -5 -13z"/>
<path d="M2672 1200 c0 -19 2 -27 5 -17 2 9 2 25 0 35 -3 9 -5 1 -5 -18z"/>
<path d="M3375 1218 c-2 -7 -6 -134 -9 -283 -4 -148 -9 -399 -12 -556 -4 -164
-3 -288 2 -292 5 -3 10 105 10 251 1 142 6 400 10 575 5 174 8 317 6 317 -1 0
-4 -6 -7 -12z"/>
<path d="M494 1075 c0 -82 2 -115 3 -72 2 43 2 110 0 150 -1 40 -3 5 -3 -78z"/>
<path d="M1381 1204 c0 -11 3 -14 6 -6 3 7 2 16 -1 19 -3 4 -6 -2 -5 -13z"/>
<path d="M1631 1204 c0 -11 3 -14 6 -6 3 7 2 16 -1 19 -3 4 -6 -2 -5 -13z"/>
<path d="M3336 1148 c-3 -40 -7 -296 -9 -568 -2 -272 -2 -439 0 -370 7 282 21
1005 18 1008 -1 2 -5 -30 -9 -70z"/>
<path d="M303 1155 c0 -33 2 -45 4 -27 2 18 2 45 0 60 -2 15 -4 0 -4 -33z"/>
<path d="M1571 1194 c0 -11 3 -14 6 -6 3 7 2 16 -1 19 -3 4 -6 -2 -5 -13z"/>
<path d="M3773 1160 c0 -30 2 -43 4 -27 2 15 2 39 0 55 -2 15 -4 2 -4 -28z"/>
<path d="M274 900 c0 -168 2 -236 3 -152 2 83 2 221 0 305 -1 83 -3 15 -3
-153z"/>
<path d="M922 1175 c0 -16 2 -22 5 -12 2 9 2 23 0 30 -3 6 -5 -1 -5 -18z"/>
<path d="M1215 1190 c-18 -8 -17 -9 7 -9 15 -1 30 4 33 9 7 12 -12 12 -40 0z"/>
<path d="M3242 1180 c0 -14 2 -19 5 -12 2 6 2 18 0 25 -3 6 -5 1 -5 -13z"/>
<path d="M3267 993 c-11 -334 -20 -918 -15 -913 3 3 8 147 12 320 3 173 9 424
13 558 3 133 4 242 1 242 -3 0 -8 -93 -11 -207z"/>
<path d="M1042 1165 c0 -16 2 -22 5 -12 2 9 2 23 0 30 -3 6 -5 -1 -5 -18z"/>
<path d="M1101 1174 c0 -11 3 -14 6 -6 3 7 2 16 -1 19 -3 4 -6 -2 -5 -13z"/>
<path d="M1597 1171 c-4 -17 -3 -21 5 -13 5 5 8 16 6 23 -3 8 -7 3 -11 -10z"/>
<path d="M3072 1160 c0 -19 2 -27 5 -17 2 9 2 25 0 35 -3 9 -5 1 -5 -18z"/>
<path d="M3103 1150 c0 -25 2 -35 4 -22 2 12 2 32 0 45 -2 12 -4 2 -4 -23z"/>
<path d="M3196 983 c-3 -115 -8 -365 -10 -558 -4 -290 -3 -313 4 -135 10 300
22 900 17 900 -2 0 -7 -93 -11 -207z"/>
<path d="M952 1160 c0 -14 2 -19 5 -12 2 6 2 18 0 25 -3 6 -5 1 -5 -13z"/>
<path d="M982 1160 c0 -14 2 -19 5 -12 2 6 2 18 0 25 -3 6 -5 1 -5 -13z"/>
<path d="M1465 1169 c-8 -11 1 -99 14 -145 5 -18 7 4 5 61 l-4 90 15 -84 c9
-47 17 -86 19 -88 2 -2 2 30 0 72 -2 48 0 74 6 70 6 -3 11 -25 11 -48 1 -23 5
-55 9 -72 6 -23 8 -15 10 40 l2 70 9 -60 c13 -86 16 -88 20 -11 3 54 1 70 -11
74 -8 3 -26 14 -39 24 -27 20 -56 24 -66 7z"/>
<path d="M2967 1173 c-4 -3 -7 -13 -7 -22 1 -13 3 -13 11 2 11 19 8 33 -4 20z"/>
<path d="M3003 1140 c0 -25 2 -35 4 -22 2 12 2 32 0 45 -2 12 -4 2 -4 -23z"/>
<path d="M1431 1133 c1 -21 5 -49 9 -63 6 -19 8 -9 9 38 1 35 -3 62 -9 62 -5
0 -10 -17 -9 -37z"/>
<path d="M1650 1161 c0 -6 4 -13 10 -16 6 -3 7 1 4 9 -7 18 -14 21 -14 7z"/>
<path d="M2741 1160 c1 -8 5 -26 9 -40 l8 -25 1 25 c0 14 -4 32 -9 40 -9 13
-10 13 -9 0z"/>
<path d="M2931 1118 c1 -55 5 -50 11 15 2 20 0 37 -4 37 -4 0 -7 -24 -7 -52z"/>
<path d="M244 990 c0 -96 2 -136 3 -87 2 48 2 126 0 175 -1 48 -3 8 -3 -88z"/>
<path d="M594 1060 c0 -58 1 -81 3 -52 2 28 2 76 0 105 -2 28 -3 5 -3 -53z"/>
<path d="M1397 1128 c3 -18 10 -44 15 -58 7 -20 7 -19 3 9 -3 18 -5 44 -5 57
0 13 -4 24 -10 24 -5 0 -7 -14 -3 -32z"/>
<path d="M2712 1130 c0 -19 2 -27 5 -17 2 9 2 25 0 35 -3 9 -5 1 -5 -18z"/>
<path d="M2834 1145 c-3 -8 -4 -20 -2 -27 3 -7 7 -1 10 15 6 29 1 36 -8 12z"/>
<path d="M2897 1133 c-7 -35 -30 -939 -25 -1008 2 -27 7 110 11 305 5 195 12
438 17 540 4 102 6 186 5 188 -1 2 -5 -10 -8 -25z"/>
<path d="M3166 1078 c-10 -124 -24 -982 -17 -990 3 -4 8 91 9 210 2 119 7 361
12 537 4 176 6 321 5 323 -2 2 -6 -34 -9 -80z"/>
<path d="M833 1080 c0 -41 2 -58 4 -37 2 20 2 54 0 75 -2 20 -4 3 -4 -38z"/>
<path d="M1091 1134 c0 -11 3 -14 6 -6 3 7 2 16 -1 19 -3 4 -6 -2 -5 -13z"/>
<path d="M1121 1134 c0 -11 3 -14 6 -6 3 7 2 16 -1 19 -3 4 -6 -2 -5 -13z"/>
<path d="M1372 1125 c0 -16 3 -39 8 -50 l9 -20 -1 20 c0 11 -4 34 -8 50 l-8
30 0 -30z"/>
<path d="M3295 798 c-4 -194 -5 -373 -3 -398 2 -25 7 132 12 348 4 216 6 395
3 398 -2 3 -8 -154 -12 -348z"/>
<path d="M1347 1105 c3 -22 7 -42 9 -44 8 -9 2 45 -6 64 -7 14 -8 8 -3 -20z"/>
<path d="M2682 1115 c0 -16 2 -22 5 -12 2 9 2 23 0 30 -3 6 -5 -1 -5 -18z"/>
<path d="M1317 1098 c8 -47 14 -49 11 -5 -1 20 -6 37 -10 37 -4 0 -5 -15 -1
-32z"/>
<path d="M2410 1088 c-37 -33 -40 -37 -15 -25 17 8 39 24 49 36 34 37 13 30
-34 -11z"/>
<path d="M2610 1121 c0 -5 5 -13 10 -16 6 -3 10 -2 10 4 0 5 -4 13 -10 16 -5
3 -10 2 -10 -4z"/>
<path d="M3026 1028 c-3 -57 -8 -294 -10 -528 -2 -234 -2 -360 0 -280 2 80 8
316 14 524 5 209 8 381 6 383 -1 2 -6 -43 -10 -99z"/>
<path d="M894 940 c0 -102 2 -143 3 -92 2 50 2 134 0 185 -1 50 -3 9 -3 -93z"/>
<path d="M923 885 l0 -240 7 202 c4 111 4 219 1 240 -4 21 -7 -70 -8 -202z"/>
<path d="M954 808 l-1 -313 7 289 c4 159 5 300 1 313 -3 13 -7 -117 -7 -289z"/>
<path d="M2651 1104 c0 -11 3 -14 6 -6 3 7 2 16 -1 19 -3 4 -6 -2 -5 -13z"/>
<path d="M2796 1081 c-4 -24 -5 -46 -2 -48 7 -7 19 63 14 79 -3 7 -8 -7 -12
-31z"/>
<path d="M3230 928 c0 -106 -3 -224 -5 -263 -9 -137 -12 -439 -5 -395 10 57
25 850 16 850 -3 0 -6 -87 -6 -192z"/>
<path d="M3734 1005 c0 -66 1 -92 3 -57 2 34 2 88 0 120 -2 31 -3 3 -3 -63z"/>
<path d="M2543 1103 c9 -2 23 -2 30 0 6 3 -1 5 -18 5 -16 0 -22 -2 -12 -5z"/>
<path d="M985 863 c0 -131 -3 -359 -6 -508 -4 -175 -4 -210 1 -100 15 328 23
845 14 845 -5 0 -9 -101 -9 -237z"/>
<path d="M1018 888 c4 -328 8 -350 10 -55 1 147 -1 267 -5 267 -5 0 -7 -96 -5
-212z"/>
<path d="M1044 587 c0 -348 2 -451 7 -322 9 269 10 835 2 835 -5 0 -8 -231 -9
-513z"/>
<path d="M1081 696 c0 -225 1 -407 3 -405 7 8 12 744 5 779 -3 19 -7 -149 -8
-374z"/>
<path d="M1113 1013 c4 -49 6 -259 4 -468 -2 -228 -1 -318 3 -225 9 200 12
694 4 743 -12 71 -20 36 -11 -50z"/>
<path d="M1145 588 c0 -288 3 -447 6 -363 8 200 9 824 1 853 -4 13 -7 -208 -7
-490z"/>
<path d="M1207 1060 c3 -25 9 -191 13 -370 l8 -325 -3 340 c-2 205 -8 352 -14
370 -9 27 -10 25 -4 -15z"/>
<path d="M3096 1048 c-3 -29 -8 -260 -9 -513 -2 -253 -3 -366 -1 -250 2 116 8
344 14 508 11 287 10 367 -4 255z"/>
<path d="M3126 858 c-15 -628 -17 -782 -10 -775 7 7 27 1007 20 1014 -2 2 -6
-105 -10 -239z"/>
<path d="M3763 1035 c0 -38 2 -53 4 -32 2 20 2 52 0 70 -2 17 -4 1 -4 -38z"/>
<path d="M314 970 c0 -69 1 -97 3 -62 2 34 2 90 0 125 -2 34 -3 6 -3 -63z"/>
<path d="M1178 642 c1 -246 4 -474 5 -507 2 -33 4 161 4 430 1 270 -1 498 -5
507 -4 10 -6 -184 -4 -430z"/>
<path d="M1701 1048 c0 -24 7 -72 14 -108 13 -58 14 -59 10 -16 -3 27 -5 75
-5 107 0 33 -4 59 -10 59 -5 0 -10 -19 -9 -42z"/>
<path d="M1730 1059 c0 -37 29 -201 37 -209 3 -3 3 13 0 35 -12 81 -19 180
-13 174 4 -3 13 -48 22 -100 8 -51 17 -96 20 -99 3 -3 3 42 -1 100 -4 58 -10
108 -14 111 -3 4 -16 10 -28 14 -21 6 -23 3 -23 -26z"/>
<path d="M2703 1050 c0 -25 2 -35 4 -22 2 12 2 32 0 45 -2 12 -4 2 -4 -23z"/>
<path d="M622 955 c-1 -71 -5 -141 -8 -155 -4 -21 -4 -22 6 -8 7 11 9 67 7
155 l-3 138 -2 -130z"/>
<path d="M1601 1043 c1 -21 5 -51 9 -68 6 -24 8 -18 9 32 0 34 -3 65 -9 68 -6
4 -10 -9 -9 -32z"/>
<path d="M2642 1050 c0 -19 2 -27 5 -17 2 9 2 25 0 35 -3 9 -5 1 -5 -18z"/>
<path d="M374 840 c0 -129 2 -182 3 -117 2 64 2 170 0 235 -1 64 -3 11 -3
-118z"/>
<path d="M524 920 c0 -85 2 -120 3 -77 2 42 2 112 0 155 -1 42 -3 7 -3 -78z"/>
<path d="M1636 1018 c9 -70 14 -74 14 -10 0 28 -5 54 -10 57 -8 5 -9 -10 -4
-47z"/>
<path d="M1800 1046 c0 -27 30 -209 35 -214 2 -2 1 36 -1 85 -4 91 -2 89 25
-42 l10 -50 -3 70 c-4 80 6 64 29 -45 l14 -65 -2 57 c-1 31 1 54 5 50 4 -4 17
-52 29 -107 20 -88 24 -138 29 -405 l6 -305 2 294 c2 223 -1 307 -12 350 -22
90 -29 148 -16 135 7 -7 20 -54 31 -105 15 -79 19 -147 20 -424 l2 -330 8 325
c5 215 4 338 -3 364 -17 66 -26 136 -17 136 4 0 11 -17 14 -37 3 -21 10 -57
16 -80 5 -23 9 -191 9 -372 0 -182 3 -331 8 -331 4 0 7 145 8 323 1 342 -1
324 50 419 8 14 37 47 64 71 28 25 50 49 50 55 0 14 -119 74 -175 88 -27 6
-57 15 -67 19 -11 4 -18 1 -21 -12 -4 -15 -5 -14 -6 4 -1 16 -18 33 -58 59
-78 50 -83 51 -83 20z m117 -88 c-3 -7 -5 -2 -5 12 0 14 2 19 5 13 2 -7 2 -19
0 -25z m70 -40 c-3 -7 -5 -2 -5 12 0 14 2 19 5 13 2 -7 2 -19 0 -25z m-30 -10
c-3 -7 -5 -2 -5 12 0 14 2 19 5 13 2 -7 2 -19 0 -25z m96 -108 c3 -11 1 -18
-4 -14 -5 3 -9 12 -9 20 0 20 7 17 13 -6z m47 -32 c0 -5 -4 -8 -10 -8 -5 0
-10 10 -10 23 0 18 2 19 10 7 5 -8 10 -18 10 -22z m-54 -39 c5 -49 -8 -29 -20
31 -5 25 -3 31 5 23 6 -6 13 -30 15 -54z m34 -2 c0 -5 -4 -5 -10 -2 -5 3 -10
14 -10 23 0 15 2 15 10 2 5 -8 10 -19 10 -23z"/>
<path d="M2671 1049 c0 -15 -3 -42 -6 -60 l-5 -34 11 34 c5 18 8 45 6 60 l-4
26 -2 -26z"/>
<path d="M2957 918 c-4 -84 -9 -306 -11 -493 -4 -313 -3 -320 4 -95 19 633 22
740 18 740 -3 0 -8 -69 -11 -152z"/>
<path d="M3058 951 c-5 -68 -7 -226 -6 -350 l1 -226 9 305 c9 337 7 462 -4
271z"/>
<path d="M344 915 c0 -82 2 -115 3 -72 2 43 2 110 0 150 -1 40 -3 5 -3 -78z"/>
<path d="M1668 1013 c8 -76 21 -97 21 -36 1 54 -6 83 -19 83 -4 0 -5 -21 -2
-47z"/>
<path d="M2733 1025 c0 -22 2 -30 4 -17 2 12 2 30 0 40 -3 9 -5 -1 -4 -23z"/>
<path d="M3962 785 l1 -280 9 269 c7 188 6 272 -1 279 -8 8 -11 -71 -9 -268z"/>
<path d="M1245 604 c0 -245 3 -435 7 -422 8 31 8 828 0 850 -4 10 -7 -183 -7
-428z"/>
<path d="M1278 895 c2 -88 7 -221 12 -295 5 -91 6 -47 2 135 -3 149 -8 281
-12 295 -4 14 -5 -47 -2 -135z"/>
<path d="M1306 1020 c4 -19 10 -183 14 -365 l8 -330 -2 340 c-2 237 -6 348
-14 365 -11 23 -12 22 -6 -10z"/>
<path d="M2987 861 c-4 -101 -6 -320 -5 -485 1 -297 1 -296 10 159 9 496 7
620 -5 326z"/>
<path d="M4124 945 c0 -55 1 -76 3 -47 2 29 2 74 0 100 -2 26 -3 2 -3 -53z"/>
<path d="M401 973 c0 -35 2 -63 7 -63 4 0 6 21 4 48 -5 75 -10 82 -11 15z"/>
<path d="M2916 748 c-3 -156 -8 -335 -10 -398 -4 -89 -3 -101 4 -55 9 68 25
735 18 735 -3 0 -8 -127 -12 -282z"/>
<path d="M213 975 c0 -27 2 -38 4 -22 2 15 2 37 0 50 -2 12 -4 0 -4 -28z"/>
<path d="M4294 700 c0 -179 2 -252 3 -162 2 89 2 235 0 325 -1 89 -3 16 -3
-163z"/>
<path d="M1348 584 c1 -236 4 -449 5 -474 2 -25 4 151 5 390 0 239 -2 453 -6
474 -4 22 -6 -154 -4 -390z"/>
<path d="M1375 960 c3 -30 8 -170 12 -310 3 -140 8 -257 11 -260 9 -10 -7 555
-17 590 -10 31 -10 29 -6 -20z"/>
<path d="M1401 994 c0 -11 3 -14 6 -6 3 7 2 16 -1 19 -3 4 -6 -2 -5 -13z"/>
<path d="M2580 1006 c0 -2 7 -6 15 -10 8 -3 15 -1 15 4 0 6 -7 10 -15 10 -8 0
-15 -2 -15 -4z"/>
<path d="M2631 994 c0 -11 3 -14 6 -6 3 7 2 16 -1 19 -3 4 -6 -2 -5 -13z"/>
<path d="M83 930 c0 -41 2 -58 4 -37 2 20 2 54 0 75 -2 20 -4 3 -4 -38z"/>
<path d="M724 885 c0 -66 1 -92 3 -57 2 34 2 88 0 120 -2 31 -3 3 -3 -63z"/>
<path d="M824 875 c0 -71 1 -99 3 -62 2 37 2 96 0 130 -2 34 -3 4 -3 -68z"/>
<path d="M1461 984 c0 -11 3 -14 6 -6 3 7 2 16 -1 19 -3 4 -6 -2 -5 -13z"/>
<path d="M114 875 c0 -66 1 -92 3 -57 2 34 2 88 0 120 -2 31 -3 3 -3 -63z"/>
<path d="M1551 974 c0 -11 3 -14 6 -6 3 7 2 16 -1 19 -3 4 -6 -2 -5 -13z"/>
<path d="M1581 974 c0 -11 3 -14 6 -6 3 7 2 16 -1 19 -3 4 -6 -2 -5 -13z"/>
<path d="M2818 871 c-5 -68 -7 -199 -6 -290 1 -160 1 -157 10 89 9 285 7 390
-4 201z"/>
<path d="M3661 674 c1 -175 5 -382 8 -459 4 -77 5 65 3 315 -3 250 -6 457 -8
459 -2 2 -3 -139 -3 -315z"/>
<path d="M2585 956 c0 -13 3 -22 8 -19 4 2 7 13 7 24 0 10 -3 19 -7 19 -5 0
-8 -11 -8 -24z"/>
<path d="M1418 555 c1 -231 4 -431 6 -445 2 -14 3 155 4 375 0 220 -3 420 -6
445 -4 25 -6 -144 -4 -375z"/>
<path d="M2249 941 c-34 -29 -37 -29 -59 -14 l-24 17 20 -27 c10 -14 21 -27
24 -27 3 0 24 18 45 40 46 47 44 52 -6 11z"/>
<path d="M1445 916 c3 -27 5 -101 5 -164 0 -63 3 -113 6 -110 9 10 4 251 -6
288 -9 32 -9 31 -5 -14z"/>
<path d="M2848 790 c-5 -96 -7 -296 -6 -445 l1 -270 9 365 c9 421 7 619 -4
350z"/>
<path d="M4324 715 c0 -137 2 -195 3 -128 2 67 2 179 0 250 -1 70 -3 16 -3
-122z"/>
<path d="M463 885 c0 -38 2 -53 4 -32 2 20 2 52 0 70 -2 17 -4 1 -4 -38z"/>
<path d="M653 870 c0 -47 2 -66 4 -42 2 23 2 61 0 85 -2 23 -4 4 -4 -43z"/>
<path d="M1476 920 c4 -19 10 -215 14 -435 l7 -400 -2 405 c-2 271 -6 415 -14
435 l-11 30 6 -35z"/>
<path d="M1506 930 c4 -14 10 -214 13 -445 l6 -420 6 260 c7 270 -4 567 -21
607 -10 22 -10 22 -4 -2z"/>
<path d="M1651 934 c0 -11 3 -14 6 -6 3 7 2 16 -1 19 -3 4 -6 -2 -5 -13z"/>
<path d="M2525 930 c-19 -8 -19 -9 3 -9 12 -1 22 4 22 9 0 6 -1 10 -2 9 -2 0
-12 -4 -23 -9z"/>
<path d="M2705 558 c-4 -205 -5 -402 -3 -438 1 -36 7 130 12 368 4 238 6 435
3 438 -2 3 -8 -163 -12 -368z"/>
<path d="M3762 905 c0 -16 2 -22 5 -12 2 9 2 23 0 30 -3 6 -5 -1 -5 -18z"/>
<path d="M3834 590 c0 -190 2 -267 3 -172 2 94 2 250 0 345 -1 94 -3 17 -3
-173z"/>
<path d="M3865 757 c2 -98 6 -181 9 -185 9 -9 6 267 -4 318 -6 29 -7 -16 -5
-133z"/>
<path d="M433 860 c0 -36 2 -50 4 -32 2 17 2 47 0 65 -2 17 -4 3 -4 -33z"/>
<path d="M583 840 c0 -47 2 -66 4 -42 2 23 2 61 0 85 -2 23 -4 4 -4 -43z"/>
<path d="M2677 801 c-4 -68 -6 -262 -5 -430 l1 -306 8 420 c5 231 7 424 5 430
-1 5 -6 -46 -9 -114z"/>
<path d="M2746 768 c-10 -262 -18 -693 -13 -688 7 7 31 830 24 836 -3 3 -7
-64 -11 -148z"/>
<path d="M1546 865 c3 -27 9 -153 14 -280 l8 -230 -3 250 c-2 138 -8 264 -14
280 -8 26 -9 23 -5 -20z"/>
<path d="M1577 885 c3 -16 9 -205 12 -420 l7 -390 1 370 c1 284 -2 382 -13
420 -7 28 -11 37 -7 20z"/>
<path d="M2605 668 c-4 -134 -5 -274 -3 -313 2 -38 7 69 11 238 5 170 7 311 4
313 -3 3 -8 -104 -12 -238z"/>
<path d="M2646 828 c-13 -182 -16 -413 -7 -613 l9 -210 -4 242 c-2 133 1 335
7 449 10 205 7 291 -5 132z"/>
<path d="M411 884 c0 -11 3 -14 6 -6 3 7 2 16 -1 19 -3 4 -6 -2 -5 -13z"/>
<path d="M2470 788 c0 -63 -2 -177 -4 -254 -4 -122 -4 -128 4 -49 10 113 15
403 6 412 -3 3 -6 -45 -6 -109z"/>
<path d="M2537 647 c-5 -142 -6 -261 -4 -263 7 -7 19 347 15 441 -2 44 -7 -36
-11 -178z"/>
<path d="M2777 730 c-4 -96 -6 -283 -5 -415 1 -223 2 -212 10 150 9 425 7 541
-5 265z"/>
<path d="M4223 845 c0 -33 2 -45 4 -27 2 18 2 45 0 60 -2 15 -4 0 -4 -33z"/>
<path d="M494 775 c0 -66 1 -92 3 -57 2 34 2 88 0 120 -2 31 -3 3 -3 -63z"/>
<path d="M2410 879 c-1 -8 -5 -99 -10 -204 -6 -104 -7 -233 -3 -285 7 -78 9
-41 14 200 3 162 4 297 2 299 -2 2 -3 -2 -3 -10z"/>
<path d="M2435 738 c-3 -84 -5 -211 -3 -283 4 -127 4 -125 7 50 2 99 6 226 10
283 3 56 3 102 0 102 -4 0 -10 -69 -14 -152z"/>
<path d="M2508 843 c7 -65 12 -67 12 -5 0 29 -4 52 -9 52 -5 0 -6 -21 -3 -47z"/>
<path d="M754 785 c0 -55 1 -76 3 -47 2 29 2 74 0 100 -2 26 -3 2 -3 -53z"/>
<path d="M1615 835 c3 -22 8 -116 11 -210 4 -93 9 -172 12 -175 9 -9 -7 355
-17 390 l-11 35 5 -40z"/>
<path d="M1641 854 c0 -11 3 -14 6 -6 3 7 2 16 -1 19 -3 4 -6 -2 -5 -13z"/>
<path d="M3763 680 c0 -107 3 -280 6 -385 l7 -190 1 195 c0 107 -3 281 -6 385
l-7 190 -1 -195z"/>
<path d="M407 786 c-4 -43 -6 -115 -6 -160 2 -61 4 -43 10 69 9 163 6 219 -4
91z"/>
<path d="M845 588 c-4 -150 -5 -293 -3 -318 1 -25 7 96 11 268 5 173 6 316 4
318 -3 3 -8 -118 -12 -268z"/>
<path d="M1682 820 c0 -14 2 -19 5 -12 2 6 2 18 0 25 -3 6 -5 1 -5 -13z"/>
<path d="M2291 824 c0 -11 3 -14 6 -6 3 7 2 16 -1 19 -3 4 -6 -2 -5 -13z"/>
<path d="M3994 715 c0 -71 1 -99 3 -62 2 37 2 96 0 130 -2 34 -3 4 -3 -68z"/>
<path d="M1711 814 c0 -11 3 -14 6 -6 3 7 2 16 -1 19 -3 4 -6 -2 -5 -13z"/>
<path d="M1658 489 c1 -184 4 -352 6 -374 1 -22 3 111 4 295 0 184 -2 353 -6
374 -4 22 -6 -111 -4 -295z"/>
<path d="M304 680 c0 -74 1 -105 3 -67 2 37 2 97 0 135 -2 37 -3 6 -3 -68z"/>
<path d="M31 784 c0 -11 3 -14 6 -6 3 7 2 16 -1 19 -3 4 -6 -2 -5 -13z"/>
<path d="M441 774 c0 -11 3 -14 6 -6 3 7 2 16 -1 19 -3 4 -6 -2 -5 -13z"/>
<path d="M1728 600 c3 -107 6 -197 8 -199 7 -8 2 294 -5 344 -4 28 -6 -38 -3
-145z"/>
<path d="M1751 774 c0 -11 3 -14 6 -6 3 7 2 16 -1 19 -3 4 -6 -2 -5 -13z"/>
<path d="M1781 774 c0 -11 3 -14 6 -6 3 7 2 16 -1 19 -3 4 -6 -2 -5 -13z"/>
<path d="M1911 764 c0 -11 3 -14 6 -6 3 7 2 16 -1 19 -3 4 -6 -2 -5 -13z"/>
<path d="M2368 767 c-5 -10 -8 -33 -7 -50 0 -31 1 -31 10 -7 5 13 9 36 7 50
-3 21 -4 22 -10 7z"/>
<path d="M4224 630 c0 -85 2 -120 3 -77 2 42 2 112 0 155 -1 42 -3 7 -3 -78z"/>
<path d="M174 630 c0 -80 2 -112 3 -72 2 39 2 105 0 145 -1 39 -3 7 -3 -73z"/>
<path d="M1694 425 l-1 -350 8 254 c4 140 5 297 1 350 -4 60 -7 -34 -8 -254z"/>
<path d="M2502 655 c-1 -66 -5 -138 -7 -160 -5 -34 -4 -37 5 -16 6 14 9 80 7
160 l-3 136 -2 -120z"/>
<path d="M2569 613 c-2 -87 -2 -243 1 -348 5 -175 6 -164 8 130 3 362 3 367
-2 372 -2 2 -5 -67 -7 -154z"/>
<path d="M203 685 c0 -44 2 -61 4 -37 2 23 2 59 0 80 -2 20 -4 1 -4 -43z"/>
<path d="M624 510 c0 -140 2 -198 3 -128 2 71 2 185 0 255 -1 71 -3 13 -3
-127z"/>
<path d="M1822 740 c0 -14 2 -19 5 -12 2 6 2 18 0 25 -3 6 -5 1 -5 -13z"/>
<path d="M3494 455 c0 -171 2 -242 3 -158 2 83 2 223 0 310 -1 87 -3 19 -3
-152z"/>
<path d="M77 650 c3 -58 9 -127 14 -155 5 -31 6 -7 2 65 -3 63 -9 133 -13 155
-6 25 -7 1 -3 -65z"/>
<path d="M714 645 c0 -60 1 -84 3 -52 2 32 2 81 0 110 -2 29 -3 3 -3 -58z"/>
<path d="M884 625 c0 -71 1 -99 3 -62 2 37 2 96 0 130 -2 34 -3 4 -3 -68z"/>
<path d="M1764 415 c0 -187 2 -262 3 -167 2 95 2 248 0 340 -1 92 -3 14 -3
-173z"/>
<path d="M1798 575 c4 -232 10 -256 10 -45 0 91 -3 179 -7 195 -4 17 -5 -51
-3 -150z"/>
<path d="M2332 725 c0 -16 2 -22 5 -12 2 9 2 23 0 30 -3 6 -5 -1 -5 -18z"/>
<path d="M442 710 c0 -19 2 -27 5 -17 2 9 2 25 0 35 -3 9 -5 1 -5 -18z"/>
<path d="M814 405 c0 -187 2 -262 3 -167 2 95 2 248 0 340 -1 92 -3 14 -3
-173z"/>
<path d="M1898 460 c1 -157 4 -305 5 -330 2 -25 4 90 4 255 0 165 -2 313 -6
330 -3 16 -5 -99 -3 -255z"/>
<path d="M1925 720 c2 -14 5 -164 5 -334 0 -170 2 -307 4 -305 3 2 6 141 7
309 2 220 -1 312 -10 330 l-12 25 6 -25z"/>
<path d="M2297 726 c-4 -10 -7 -25 -6 -34 0 -11 4 -9 10 7 5 13 8 29 6 35 -2
5 -6 2 -10 -8z"/>
<path d="M1867 610 c3 -69 7 -127 9 -129 7 -8 2 154 -6 204 -5 32 -6 4 -3 -75z"/>
<path d="M3734 425 c0 -171 2 -242 3 -158 2 83 2 223 0 310 -1 87 -3 19 -3
-152z"/>
<path d="M1834 395 c0 -176 2 -247 3 -157 2 90 2 234 0 320 -1 86 -3 13 -3
-163z"/>
<path d="M2172 690 c0 -14 2 -19 5 -12 2 6 2 18 0 25 -3 6 -5 1 -5 -13z"/>
<path d="M2261 694 c0 -11 3 -14 6 -6 3 7 2 16 -1 19 -3 4 -6 -2 -5 -13z"/>
<path d="M4153 665 c0 -27 2 -38 4 -22 2 15 2 37 0 50 -2 12 -4 0 -4 -28z"/>
<path d="M587 433 c-4 -148 -9 -288 -12 -313 -4 -43 -4 -44 5 -10 10 36 27
590 18 590 -3 0 -8 -120 -11 -267z"/>
<path d="M3804 440 c0 -146 2 -205 3 -132 2 72 2 192 0 265 -1 72 -3 13 -3
-133z"/>
<path d="M533 610 c0 -47 2 -66 4 -42 2 23 2 61 0 85 -2 23 -4 4 -4 -43z"/>
<path d="M334 575 c0 -60 1 -84 3 -52 2 32 2 81 0 110 -2 29 -3 3 -3 -58z"/>
<path d="M653 615 c0 -38 2 -53 4 -32 2 20 2 52 0 70 -2 17 -4 1 -4 -38z"/>
<path d="M2358 583 c-5 -112 14 -513 24 -498 3 6 2 60 -3 120 -5 61 -10 192
-10 293 0 100 -2 182 -3 182 -2 0 -5 -44 -8 -97z"/>
<path d="M743 625 c0 -27 2 -38 4 -22 2 15 2 37 0 50 -2 12 -4 0 -4 -28z"/>
<path d="M2321 548 c2 -136 7 -125 11 25 2 53 0 97 -4 97 -5 0 -7 -55 -7 -122z"/>
<path d="M4191 519 c1 -85 5 -212 9 -284 5 -84 6 -30 2 150 -2 154 -6 282 -8
284 -2 2 -3 -65 -3 -150z"/>
<path d="M234 570 c0 -52 1 -74 3 -47 2 26 2 68 0 95 -2 26 -3 4 -3 -48z"/>
<path d="M502 630 c0 -14 2 -19 5 -12 2 6 2 18 0 25 -3 6 -5 1 -5 -13z"/>
<path d="M2294 525 c0 -72 1 -99 3 -62 2 37 2 96 0 130 -2 34 -3 4 -3 -68z"/>
<path d="M432 620 c0 -14 2 -19 5 -12 2 6 2 18 0 25 -3 6 -5 1 -5 -13z"/>
<path d="M914 360 c0 -157 2 -221 3 -142 2 78 2 206 0 285 -1 78 -3 14 -3
-143z"/>
<path d="M52 580 c0 -19 2 -27 5 -17 2 9 2 25 0 35 -3 9 -5 1 -5 -18z"/>
<path d="M464 480 c0 -69 1 -97 3 -62 2 34 2 90 0 125 -2 34 -3 6 -3 -63z"/>
<path d="M3594 495 c0 -60 1 -84 3 -52 2 32 2 81 0 110 -2 29 -3 3 -3 -58z"/>
<path d="M4092 580 c0 -14 2 -19 5 -12 2 6 2 18 0 25 -3 6 -5 1 -5 -13z"/>
<path d="M434 495 c0 -55 1 -76 3 -47 2 29 2 74 0 100 -2 26 -3 2 -3 -53z"/>
<path d="M492 560 c0 -19 2 -27 5 -17 2 9 2 25 0 35 -3 9 -5 1 -5 -18z"/>
<path d="M3562 570 c0 -14 2 -19 5 -12 2 6 2 18 0 25 -3 6 -5 1 -5 -13z"/>
<path d="M2258 543 c-3 -21 -2 -67 2 -103 7 -61 7 -59 8 38 0 56 -1 102 -3
102 -1 0 -5 -17 -7 -37z"/>
<path d="M263 510 c0 -36 2 -50 4 -32 2 17 2 47 0 65 -2 17 -4 3 -4 -33z"/>
<path d="M363 495 c0 -44 2 -61 4 -37 2 23 2 59 0 80 -2 20 -4 1 -4 -43z"/>
<path d="M3864 465 c0 -55 1 -76 3 -47 2 29 2 74 0 100 -2 26 -3 2 -3 -53z"/>
<path d="M4264 415 c0 -82 2 -115 3 -72 2 43 2 110 0 150 -1 40 -3 5 -3 -78z"/>
<path d="M63 460 c0 -47 2 -66 4 -42 2 23 2 61 0 85 -2 23 -4 4 -4 -43z"/>
<path d="M1014 310 c0 -129 2 -182 3 -117 2 64 2 170 0 235 -1 64 -3 11 -3
-118z"/>
<path d="M4124 435 c0 -60 1 -84 3 -52 2 32 2 81 0 110 -2 29 -3 3 -3 -58z"/>
<path d="M663 480 c0 -30 2 -43 4 -27 2 15 2 39 0 55 -2 15 -4 2 -4 -28z"/>
<path d="M754 355 c0 -99 2 -138 3 -87 2 51 2 132 0 180 -1 48 -3 6 -3 -93z"/>
<path d="M394 430 c0 -52 1 -74 3 -47 2 26 2 68 0 95 -2 26 -3 4 -3 -48z"/>
<path d="M724 385 c0 -77 2 -107 3 -67 2 40 2 103 0 140 -2 37 -3 4 -3 -73z"/>
<path d="M494 385 c0 -66 1 -92 3 -57 2 34 2 88 0 120 -2 31 -3 3 -3 -63z"/>
<path d="M2221 484 c0 -11 3 -14 6 -6 3 7 2 16 -1 19 -3 4 -6 -2 -5 -13z"/>
<path d="M685 345 c-4 -80 -5 -148 -3 -151 3 -2 9 61 13 141 3 81 5 149 2 151
-3 3 -8 -61 -12 -141z"/>
<path d="M533 445 c0 -22 2 -30 4 -17 2 12 2 30 0 40 -3 9 -5 -1 -4 -23z"/>
<path d="M784 285 c0 -110 2 -156 3 -103 2 53 2 143 0 200 -1 57 -3 13 -3 -97z"/>
<path d="M944 280 c0 -113 2 -159 3 -102 2 56 2 148 0 205 -1 56 -3 10 -3
-103z"/>
<path d="M2193 445 c0 -22 2 -30 4 -17 2 12 2 30 0 40 -3 9 -5 -1 -4 -23z"/>
<path d="M3562 460 c0 -14 2 -19 5 -12 2 6 2 18 0 25 -3 6 -5 1 -5 -13z"/>
<path d="M223 405 c0 -38 2 -53 4 -32 2 20 2 52 0 70 -2 17 -4 1 -4 -38z"/>
<path d="M293 415 c0 -33 2 -45 4 -27 2 18 2 45 0 60 -2 15 -4 0 -4 -33z"/>
<path d="M2163 430 c0 -25 2 -35 4 -22 2 12 2 32 0 45 -2 12 -4 2 -4 -23z"/>
<path d="M3630 277 c0 -122 4 -197 10 -197 9 0 3 379 -6 389 -2 2 -4 -84 -4
-192z"/>
<path d="M877 453 c-4 -3 -7 -58 -7 -121 0 -64 2 -113 5 -111 3 4 13 239 9
239 0 0 -4 -3 -7 -7z"/>
<path d="M4094 345 c0 -66 1 -92 3 -57 2 34 2 88 0 120 -2 31 -3 3 -3 -63z"/>
<path d="M4234 345 c0 -66 1 -92 3 -57 2 34 2 88 0 120 -2 31 -3 3 -3 -63z"/>
<path d="M92 410 c0 -14 2 -19 5 -12 2 6 2 18 0 25 -3 6 -5 1 -5 -13z"/>
<path d="M253 350 c0 -47 2 -66 4 -42 2 23 2 61 0 85 -2 23 -4 4 -4 -43z"/>
<path d="M323 370 c0 -36 2 -50 4 -32 2 17 2 47 0 65 -2 17 -4 3 -4 -33z"/>
<path d="M1284 255 c0 -99 2 -138 3 -87 2 51 2 132 0 180 -1 48 -3 6 -3 -93z"/>
<path d="M1454 255 c0 -99 2 -138 3 -87 2 51 2 132 0 180 -1 48 -3 6 -3 -93z"/>
<path d="M3704 250 c0 -102 2 -143 3 -92 2 50 2 134 0 185 -1 50 -3 9 -3 -93z"/>
<path d="M3903 375 c0 -33 2 -45 4 -27 2 18 2 45 0 60 -2 15 -4 0 -4 -33z"/>
<path d="M3564 265 c0 -82 2 -115 3 -72 2 43 2 110 0 150 -1 40 -3 5 -3 -78z"/>
<path d="M4164 300 c0 -63 1 -89 3 -57 2 31 2 83 0 115 -2 31 -3 5 -3 -58z"/>
<path d="M2133 365 c0 -22 2 -30 4 -17 2 12 2 30 0 40 -3 9 -5 -1 -4 -23z"/>
<path d="M2233 335 c-1 -38 3 -113 7 -165 6 -89 7 -91 7 -25 1 39 -3 113 -7
165 -6 89 -7 91 -7 25z"/>
<path d="M2503 240 c0 -137 1 -151 8 -85 4 44 4 118 0 165 -7 73 -8 61 -8 -80z"/>
<path d="M3421 384 c0 -11 3 -14 6 -6 3 7 2 16 -1 19 -3 4 -6 -2 -5 -13z"/>
<path d="M423 320 c0 -41 2 -58 4 -37 2 20 2 54 0 75 -2 20 -4 3 -4 -38z"/>
<path d="M515 250 c-4 -78 -5 -144 -2 -146 3 -3 8 58 12 136 4 78 5 143 2 146
-2 3 -8 -59 -12 -136z"/>
<path d="M653 315 c0 -44 2 -61 4 -37 2 23 2 59 0 80 -2 20 -4 1 -4 -43z"/>
<path d="M2333 330 c0 -36 2 -50 4 -32 2 17 2 47 0 65 -2 17 -4 3 -4 -33z"/>
<path d="M3464 235 c0 -88 2 -123 3 -77 2 46 2 118 0 160 -1 42 -3 5 -3 -83z"/>
<path d="M1384 230 c0 -85 2 -120 3 -78 2 43 2 113 0 156 -1 42 -3 7 -3 -78z"/>
<path d="M353 305 c0 -38 2 -53 4 -32 2 20 2 52 0 70 -2 17 -4 1 -4 -38z"/>
<path d="M2304 265 c0 -60 1 -84 3 -52 2 32 2 81 0 110 -2 29 -3 3 -3 -58z"/>
<path d="M40 289 c0 -41 5 -81 11 -89 7 -10 8 11 3 70 -4 47 -8 87 -10 89 -2
2 -4 -29 -4 -70z"/>
<path d="M1864 225 c0 -77 2 -107 3 -67 2 40 2 103 0 140 -2 37 -3 4 -3 -73z"/>
<path d="M2474 215 c0 -82 2 -115 3 -72 2 43 2 110 0 150 -1 40 -3 5 -3 -78z"/>
<path d="M3044 220 c0 -80 2 -112 3 -72 2 39 2 105 0 145 -1 39 -3 7 -3 -73z"/>
<path d="M3424 225 c0 -77 2 -107 3 -67 2 40 2 103 0 140 -2 37 -3 4 -3 -73z"/>
<path d="M3592 340 c0 -14 2 -19 5 -12 2 6 2 18 0 25 -3 6 -5 1 -5 -13z"/>
<path d="M3873 295 c0 -38 2 -53 4 -32 2 20 2 52 0 70 -2 17 -4 1 -4 -38z"/>
<path d="M275 215 c-4 -75 -5 -138 -2 -141 2 -3 8 56 12 131 4 75 5 138 2 141
-3 3 -8 -56 -12 -131z"/>
<path d="M1214 215 c0 -77 2 -107 3 -67 2 40 2 103 0 140 -2 37 -3 4 -3 -73z"/>
<path d="M2104 230 c0 -69 1 -97 3 -63 2 35 2 91 0 125 -2 35 -3 7 -3 -62z"/>
<path d="M2204 260 c0 -52 1 -74 3 -47 2 26 2 68 0 95 -2 26 -3 4 -3 -48z"/>
<path d="M454 245 c0 -55 1 -76 3 -47 2 29 2 74 0 100 -2 26 -3 2 -3 -53z"/>
<path d="M2544 210 c0 -74 1 -105 3 -67 2 37 2 97 0 135 -2 37 -3 6 -3 -68z"/>
<path d="M1554 200 c0 -69 1 -97 3 -63 2 35 2 91 0 125 -2 35 -3 7 -3 -62z"/>
<path d="M4134 230 c0 -52 1 -74 3 -47 2 26 2 68 0 95 -2 26 -3 4 -3 -48z"/>
<path d="M383 240 c0 -36 2 -50 4 -32 2 17 2 47 0 65 -2 17 -4 3 -4 -33z"/>
<path d="M2132 270 c0 -19 2 -27 5 -17 2 9 2 25 0 35 -3 9 -5 1 -5 -18z"/>
<path d="M3534 185 c0 -60 1 -84 3 -52 2 32 2 81 0 110 -2 29 -3 3 -3 -58z"/>
<path d="M312 220 c-1 -36 -4 -90 -7 -120 l-4 -55 10 55 c5 30 8 84 6 120 l-3
65 -2 -65z"/>
<path d="M2610 243 c-3 -23 -2 -39 3 -34 5 5 7 24 5 42 -3 33 -4 33 -8 -8z"/>
<path d="M4063 230 c0 -30 2 -43 4 -27 2 15 2 39 0 55 -2 15 -4 2 -4 -28z"/>
<path d="M1074 175 c0 -55 1 -76 3 -47 2 29 2 74 0 100 -2 26 -3 2 -3 -53z"/>
<path d="M2274 180 c0 -52 1 -74 3 -47 2 26 2 68 0 95 -2 26 -3 4 -3 -48z"/>
<path d="M244 170 c0 -52 1 -74 3 -47 2 26 2 68 0 95 -2 26 -3 4 -3 -48z"/>
<path d="M485 248 c-7 -23 -17 -183 -11 -177 3 3 9 47 14 97 7 86 7 109 -3 80z"/>
<path d="M1624 170 c0 -52 1 -74 3 -47 2 26 2 68 0 95 -2 26 -3 4 -3 -48z"/>
<path d="M2444 165 c0 -55 1 -76 3 -47 2 29 2 74 0 100 -2 26 -3 2 -3 -53z"/>
<path d="M613 170 c0 -47 2 -66 4 -42 2 23 2 61 0 85 -2 23 -4 4 -4 -43z"/>
<path d="M2344 165 c0 -50 1 -71 3 -48 2 23 2 64 0 90 -2 26 -3 8 -3 -42z"/>
<path d="M2414 165 c0 -50 1 -71 3 -48 2 23 2 64 0 90 -2 26 -3 8 -3 -42z"/>
<path d="M3392 230 c0 -14 2 -19 5 -12 2 6 2 18 0 25 -3 6 -5 1 -5 -13z"/>
<path d="M4302 230 c0 -14 2 -19 5 -12 2 6 2 18 0 25 -3 6 -5 1 -5 -13z"/>
<path d="M413 160 c0 -47 2 -66 4 -42 2 23 2 61 0 85 -2 23 -4 4 -4 -43z"/>
<path d="M643 155 c0 -44 2 -61 4 -37 2 23 2 59 0 80 -2 20 -4 1 -4 -43z"/>
<path d="M713 150 c0 -41 2 -58 4 -37 2 20 2 54 0 75 -2 20 -4 3 -4 -38z"/>
<path d="M2173 150 c0 -41 2 -58 4 -37 2 20 2 54 0 75 -2 20 -4 3 -4 -38z"/>
<path d="M2803 150 c0 -41 2 -58 4 -37 2 20 2 54 0 75 -2 20 -4 3 -4 -38z"/>
<path d="M3843 185 c0 -22 2 -30 4 -17 2 12 2 30 0 40 -3 9 -5 -1 -4 -23z"/>
<path d="M3963 155 c0 -38 2 -53 4 -32 2 20 2 52 0 70 -2 17 -4 1 -4 -38z"/>
<path d="M343 150 c0 -36 2 -50 4 -32 2 17 2 47 0 65 -2 17 -4 3 -4 -33z"/>
<path d="M852 163 c-1 -28 -5 -60 -8 -70 -5 -14 -4 -15 5 -7 8 7 11 33 8 70
l-3 59 -2 -52z"/>
<path d="M4103 150 c0 -36 2 -50 4 -32 2 17 2 47 0 65 -2 17 -4 3 -4 -33z"/>
<path d="M23 145 c0 -33 2 -45 4 -27 2 18 2 45 0 60 -2 15 -4 0 -4 -33z"/>
<path d="M213 140 c0 -36 2 -50 4 -32 2 17 2 47 0 65 -2 17 -4 3 -4 -33z"/>
<path d="M3393 135 c0 -38 2 -53 4 -32 2 20 2 52 0 70 -2 17 -4 1 -4 -38z"/>
<path d="M3992 170 c0 -19 2 -27 5 -17 2 9 2 25 0 35 -3 9 -5 1 -5 -18z"/>
<path d="M883 135 c0 -33 2 -45 4 -27 2 18 2 45 0 60 -2 15 -4 0 -4 -33z"/>
<path d="M3603 130 c0 -36 2 -50 4 -32 2 17 2 47 0 65 -2 17 -4 3 -4 -33z"/>
<path d="M2072 155 c0 -16 2 -22 5 -12 2 9 2 23 0 30 -3 6 -5 -1 -5 -18z"/>
<path d="M4173 125 c0 -33 2 -45 4 -27 2 18 2 45 0 60 -2 15 -4 0 -4 -33z"/>
<path d="M743 125 c0 -27 2 -38 4 -22 2 15 2 37 0 50 -2 12 -4 0 -4 -28z"/>
<path d="M2131 154 c0 -11 3 -14 6 -6 3 7 2 16 -1 19 -3 4 -6 -2 -5 -13z"/>
<path d="M2913 125 c0 -27 2 -38 4 -22 2 15 2 37 0 50 -2 12 -4 0 -4 -28z"/>
<path d="M3813 125 c0 -22 2 -30 4 -17 2 12 2 30 0 40 -3 9 -5 -1 -4 -23z"/>
<path d="M4033 120 c0 -25 2 -35 4 -22 2 12 2 32 0 45 -2 12 -4 2 -4 -23z"/>
<path d="M372 120 c0 -19 2 -27 5 -17 2 9 2 25 0 35 -3 9 -5 1 -5 -18z"/>
<path d="M1243 115 c0 -22 2 -30 4 -17 2 12 2 30 0 40 -3 9 -5 -1 -4 -23z"/>
<path d="M443 105 c0 -22 2 -30 4 -17 2 12 2 30 0 40 -3 9 -5 -1 -4 -23z"/>
<path d="M1112 120 c0 -14 2 -19 5 -12 2 6 2 18 0 25 -3 6 -5 1 -5 -13z"/>
<path d="M2312 105 c0 -16 2 -22 5 -12 2 9 2 23 0 30 -3 6 -5 -1 -5 -18z"/>
<path d="M4002 100 c0 -14 2 -19 5 -12 2 6 2 18 0 25 -3 6 -5 1 -5 -13z"/>
<path d="M441 44 c0 -11 3 -14 6 -6 3 7 2 16 -1 19 -3 4 -6 -2 -5 -13z"/>
</g>
</svg>
